<svg xmlns="http://www.w3.org/2000/svg">

    <!-- logo -->
    <symbol id="logo-icon">
        <path fill-rule="evenodd" stroke="rgb(255, 255, 255)" stroke-width="2px"
            stroke-linecap="butt" stroke-linejoin="miter" fill="none"
            d="M63.675,68.857 L34.860,13.860 L6.046,68.857 L63.675,68.857 Z" />
        <path fill-rule="evenodd" stroke="rgb(246, 247, 252)" stroke-width="2px"
            stroke-linecap="butt" stroke-linejoin="miter" fill="none"
            d="M34.500,1.000 C53.002,1.000 68.000,15.870 68.000,34.214 C68.000,52.558 53.002,67.429 34.500,67.429 C15.998,67.429 1.000,52.558 1.000,34.214 C1.000,15.870 15.998,1.000 34.500,1.000 Z" />
        <path fill-rule="evenodd" fill="rgb(255, 255, 255)"
            d="M34.860,63.857 C36.850,63.857 38.462,65.456 38.462,67.429 C38.462,69.401 36.850,71.000 34.860,71.000 C32.871,71.000 31.258,69.401 31.258,67.429 C31.258,65.456 32.871,63.857 34.860,63.857 Z" />
        <path fill-rule="evenodd" fill="rgb(255, 255, 255)"
            d="M61.516,63.857 C63.505,63.857 65.118,65.456 65.118,67.429 C65.118,69.401 63.505,71.000 61.516,71.000 C59.527,71.000 57.914,69.401 57.914,67.429 C57.914,65.456 59.527,63.857 61.516,63.857 Z" />
        <path fill-rule="evenodd" fill="rgb(255, 255, 255)"
            d="M6.043,63.857 C8.032,63.857 9.645,65.456 9.645,67.429 C9.645,69.401 8.032,71.000 6.043,71.000 C4.054,71.000 2.441,69.401 2.441,67.429 C2.441,65.456 4.054,63.857 6.043,63.857 Z" />
    </symbol>

    <!-- scroll -->
    <symbol id="scroll-icon">
        <path fill-rule="evenodd" fill="rgb(255, 255, 255)"
        d="M11.497,37.001 C5.156,37.001 -0.001,31.837 -0.001,25.490 L-0.001,11.416 C-0.001,5.440 4.612,0.468 10.543,-0.007 L12.451,-0.007 C18.383,0.472 22.996,5.444 22.996,11.416 L22.996,25.490 C22.996,31.837 17.838,37.001 11.497,37.001 ZM21.088,11.416 C21.088,6.121 16.785,1.815 11.497,1.815 C6.208,1.815 1.906,6.121 1.906,11.416 L1.906,25.490 C1.906,30.785 6.209,35.091 11.497,35.091 C16.785,35.091 21.088,30.785 21.088,25.490 L21.088,11.416 ZM11.497,13.075 C10.583,13.075 9.840,12.331 9.840,11.416 C9.840,10.501 10.583,9.757 11.497,9.757 C12.410,9.757 13.154,10.501 13.154,11.416 C13.154,12.331 12.411,13.075 11.497,13.075 Z" />
    </symbol>

    <!-- pen -->
    <symbol id="pen-nib-icon" width="80px" height="84px">
        <path fill-rule="evenodd" fill="rgb(60, 60, 60)"
         d="M77.956,-0.011 L66.032,-0.011 C64.907,-0.011 64.007,0.889 64.007,2.014 L64.007,6.177 L15.860,6.177 L15.860,2.014 C15.860,0.889 14.961,-0.011 13.836,-0.011 L2.024,-0.011 C0.899,-0.011 -0.001,0.889 -0.001,2.014 L-0.001,14.277 C-0.001,15.402 0.899,16.302 2.024,16.302 L13.948,16.302 C15.073,16.302 15.973,15.402 15.973,14.277 L15.973,10.114 L38.134,10.114 C37.909,15.065 25.872,38.354 18.223,52.079 C17.773,52.867 17.998,53.879 18.673,54.554 C25.535,60.404 27.222,66.143 27.672,69.067 L25.085,69.067 C23.960,69.067 23.060,69.967 23.060,71.093 L23.060,80.993 C23.060,82.118 23.960,83.018 25.085,83.018 L55.008,83.018 C56.133,83.018 57.033,82.118 57.033,80.993 L57.033,71.093 C57.033,69.967 56.133,69.067 55.008,69.067 L52.420,69.067 C52.870,66.143 54.558,60.404 61.420,54.554 C62.095,53.992 62.320,52.867 61.870,52.079 C54.220,38.354 42.184,14.952 41.959,10.114 L64.007,10.114 L64.007,14.277 C64.007,15.402 64.907,16.302 66.032,16.302 L77.956,16.302 C79.081,16.302 79.981,15.402 79.981,14.277 L79.981,2.014 C79.981,0.889 79.081,-0.011 77.956,-0.011 ZM11.923,12.252 L3.936,12.252 L3.936,3.926 L11.923,3.926 L11.923,12.252 ZM40.046,45.216 C41.509,45.216 42.634,46.341 42.634,47.804 C42.634,49.267 41.509,50.392 40.046,50.392 C38.584,50.392 37.459,49.267 37.459,47.804 C37.459,46.454 38.696,45.216 40.046,45.216 ZM53.095,78.855 L27.110,78.855 L27.110,72.893 L29.810,72.893 L50.396,72.893 L53.095,72.893 L53.095,78.855 ZM48.483,68.955 L31.609,68.955 C31.159,65.692 29.472,59.167 22.385,52.529 C25.085,47.579 33.184,32.728 38.021,21.702 L38.021,41.616 C35.434,42.404 33.522,44.878 33.522,47.804 C33.522,51.404 36.447,54.329 40.046,54.329 C43.646,54.329 46.571,51.404 46.571,47.804 C46.571,44.878 44.658,42.516 42.071,41.616 L42.071,21.590 C47.021,32.616 55.008,47.466 57.707,52.529 C50.621,59.167 48.933,65.692 48.483,68.955 ZM76.044,12.252 L68.057,12.252 L68.057,8.539 C68.057,8.427 68.057,8.314 68.057,8.202 C68.057,8.089 68.057,7.977 68.057,7.864 L68.057,4.039 L76.044,4.039 L76.044,12.252 Z" />
    </symbol>
    
    <!-- code -->
    <symbol id="panel-code-icon" width="79px" height="76px">
        <path fill-rule="evenodd" fill="rgb(60, 60, 60)"
            d="M76.921,75.997 L2.078,75.997 C0.929,75.997 -0.002,75.057 -0.002,73.899 L-0.002,12.982 L-0.002,2.093 C-0.002,0.934 0.929,-0.006 2.078,-0.006 L76.921,-0.006 C78.069,-0.006 79.000,0.933 79.000,2.093 L79.000,12.982 L79.000,73.899 C79.000,75.058 78.069,75.997 76.921,75.997 ZM74.842,4.192 L4.156,4.192 L4.156,10.883 L74.842,10.883 L74.842,4.192 ZM74.842,15.080 L4.156,15.080 L4.156,71.800 L74.842,71.800 L74.842,15.080 ZM27.748,34.625 C28.459,33.908 29.610,33.908 30.321,34.625 C31.032,35.342 31.032,36.504 30.321,37.221 L25.957,41.628 L30.331,46.043 C31.041,46.760 31.041,47.922 30.331,48.639 C29.976,48.997 29.510,49.177 29.045,49.177 C28.579,49.177 28.115,48.997 27.759,48.638 L22.099,42.926 C21.388,42.209 21.388,41.046 22.099,40.329 L27.748,34.625 ZM39.752,32.847 C40.000,31.864 40.996,31.273 41.964,31.522 C42.938,31.772 43.526,32.773 43.278,33.756 L38.654,52.037 C38.444,52.866 37.704,53.418 36.893,53.418 C36.744,53.418 36.592,53.400 36.441,53.361 C35.467,53.111 34.881,52.111 35.129,51.128 L39.752,32.847 ZM48.666,34.624 C49.376,33.907 50.529,33.907 51.238,34.624 L56.898,40.337 C57.240,40.681 57.432,41.148 57.432,41.635 C57.432,42.122 57.240,42.588 56.898,42.933 L51.247,48.637 C50.892,48.997 50.427,49.177 49.962,49.177 C49.497,49.177 49.030,48.997 48.676,48.638 C47.965,47.921 47.965,46.759 48.676,46.042 L53.041,41.636 L48.666,37.221 C47.956,36.503 47.956,35.342 48.666,34.624 ZM9.181,6.069 C9.984,6.069 10.635,6.727 10.635,7.537 C10.635,8.348 9.984,9.005 9.181,9.005 C8.377,9.005 7.726,8.348 7.726,7.537 C7.726,6.727 8.377,6.069 9.181,6.069 ZM13.531,6.070 C14.334,6.070 14.985,6.727 14.985,7.537 C14.985,8.348 14.334,9.004 13.531,9.004 C12.729,9.004 12.078,8.348 12.078,7.537 C12.078,6.727 12.729,6.070 13.531,6.070 ZM17.881,6.069 C18.684,6.069 19.335,6.727 19.335,7.537 C19.335,8.348 18.684,9.005 17.881,9.005 C17.078,9.005 16.427,8.348 16.427,7.537 C16.427,6.727 17.078,6.069 17.881,6.069 Z" />
    </symbol>

    <!-- clipboard-list -->
    <symbol id="clipboard-list-icon" width="79px" height="91px">
        <path fill-rule="evenodd" fill="rgb(60, 60, 60)"
            d="M76.888,91.000 L2.081,91.000 C0.920,91.000 -0.011,90.075 -0.011,88.921 L-0.011,13.483 C-0.011,12.340 0.920,11.405 2.081,11.405 L22.548,11.405 C22.767,8.224 25.435,5.719 28.679,5.719 L34.673,5.719 C34.705,2.570 37.300,0.013 40.480,0.013 C43.670,0.013 46.254,2.570 46.296,5.719 L52.281,5.719 C55.534,5.719 58.202,8.224 58.422,11.405 L76.888,11.405 C78.049,11.405 78.981,12.340 78.981,13.483 L78.981,88.921 C78.981,90.075 78.049,91.000 76.888,91.000 ZM54.259,11.842 C54.259,10.761 53.381,9.877 52.282,9.877 L45.743,9.877 C43.745,9.877 42.113,8.257 42.113,6.271 L42.113,5.793 C42.113,4.899 41.380,4.171 40.481,4.171 C39.591,4.171 38.859,4.899 38.859,5.793 L38.859,6.271 C38.859,8.255 37.226,9.877 35.218,9.877 L28.679,9.877 C27.591,9.877 26.711,10.761 26.711,11.842 L26.713,11.842 L26.713,16.103 L54.259,16.103 L54.259,11.842 ZM74.794,15.562 L58.441,15.562 L58.441,18.181 C58.441,19.335 57.510,20.260 56.349,20.260 L24.618,20.260 C23.457,20.260 22.526,19.335 22.526,18.181 L22.526,15.562 L4.173,15.562 L4.173,86.843 L74.794,86.843 L74.794,15.562 ZM19.768,32.375 L21.757,34.350 L26.843,29.298 C27.455,28.689 28.449,28.689 29.062,29.298 C29.675,29.906 29.675,30.894 29.062,31.503 L22.867,37.657 C22.559,37.962 22.157,38.114 21.756,38.114 C21.354,38.114 20.953,37.962 20.647,37.657 L17.549,34.580 C16.937,33.971 16.937,32.984 17.549,32.375 C18.162,31.766 19.155,31.766 19.768,32.375 ZM19.768,45.715 L21.757,47.689 L26.843,42.638 C27.455,42.029 28.449,42.029 29.062,42.638 C29.676,43.246 29.675,44.234 29.062,44.843 L22.867,50.997 C22.559,51.302 22.157,51.454 21.756,51.454 C21.354,51.454 20.953,51.301 20.647,50.997 L17.549,47.920 C16.937,47.311 16.937,46.324 17.549,45.715 C18.162,45.106 19.155,45.106 19.768,45.715 ZM19.768,59.055 L21.757,61.031 L26.843,55.979 C27.455,55.370 28.449,55.370 29.062,55.979 C29.675,56.588 29.675,57.575 29.062,58.184 L22.867,64.339 C22.559,64.643 22.157,64.794 21.756,64.794 C21.354,64.794 20.953,64.642 20.647,64.338 L17.549,61.261 C16.937,60.652 16.937,59.664 17.549,59.055 C18.162,58.447 19.155,58.447 19.768,59.055 ZM19.768,72.397 L21.757,74.373 L26.843,69.321 C27.455,68.712 28.449,68.712 29.062,69.321 C29.676,69.930 29.675,70.917 29.062,71.526 L22.867,77.680 C22.559,77.984 22.157,78.137 21.756,78.137 C21.354,78.137 20.953,77.984 20.647,77.680 L17.549,74.602 C16.937,73.993 16.937,73.006 17.549,72.397 C18.162,71.789 19.155,71.789 19.768,72.397 ZM35.637,31.919 L54.311,31.919 C55.177,31.919 55.880,32.617 55.880,33.478 C55.880,34.339 55.178,35.037 54.311,35.037 L35.637,35.037 C34.771,35.037 34.068,34.339 34.068,33.478 C34.068,32.617 34.771,31.919 35.637,31.919 ZM35.637,45.260 L54.311,45.260 C55.177,45.260 55.880,45.958 55.880,46.819 C55.880,47.680 55.178,48.378 54.311,48.378 L35.637,48.378 C34.771,48.378 34.068,47.680 34.068,46.819 C34.068,45.958 34.771,45.260 35.637,45.260 ZM35.637,58.600 L54.311,58.600 C55.177,58.600 55.880,59.297 55.880,60.159 C55.880,61.020 55.178,61.717 54.311,61.717 L35.637,61.717 C34.771,61.717 34.068,61.020 34.068,60.159 C34.068,59.297 34.771,58.600 35.637,58.600 ZM35.637,71.940 L54.311,71.940 C55.177,71.940 55.880,72.638 55.880,73.499 C55.880,74.360 55.178,75.058 54.311,75.058 L35.637,75.058 C34.771,75.058 34.068,74.360 34.068,73.499 C34.068,72.638 34.771,71.940 35.637,71.940 ZM40.485,10.140 C41.595,10.140 42.494,11.034 42.494,12.137 C42.494,13.239 41.595,14.133 40.485,14.133 C39.375,14.133 38.475,13.239 38.475,12.137 C38.475,11.034 39.375,10.140 40.485,10.140 Z" />
    </symbol>

</svg>