<svg xmlns="http://www.w3.org/2000/svg" >

	<!-- facebook -->
	<symbol id="facebook-icon" viewBox="0 0 320 512">
		<path  d="M279.14 288l14.22-92.66h-88.91v-60.13c0-25.35 12.42-50.06 52.24-50.06h40.42V6.26S260.43 0 225.36 0c-73.22 0-121.08 44.38-121.08 124.72v70.62H22.89V288h81.39v224h100.17V288z"></path>
	</symbol>
	
	<!-- twitter -->
	<symbol id="twitter-icon" viewBox="0 0 512 512">
		<path d="M459.37 151.716c.325 4.548.325 9.097.325 13.645 0 138.72-105.583 298.558-298.558 298.558-59.452 0-114.68-17.219-161.137-47.106 8.447.974 16.568 1.299 25.34 1.299 49.055 0 94.213-16.568 130.274-44.832-46.132-.975-84.792-31.188-98.112-72.772 6.498.974 12.995 1.624 19.818 1.624 9.421 0 18.843-1.3 27.614-3.573-48.081-9.747-84.143-51.98-84.143-102.985v-1.299c13.969 7.797 30.214 12.67 47.431 13.319-28.264-18.843-46.781-51.005-46.781-87.391 0-19.492 5.197-37.36 14.294-52.954 51.655 63.675 129.3 105.258 216.365 109.807-1.624-7.797-2.599-15.918-2.599-24.04 0-57.828 46.782-104.934 104.934-104.934 30.213 0 57.502 12.67 76.67 33.137 23.715-4.548 46.456-13.32 66.599-25.34-7.798 24.366-24.366 44.833-46.132 57.827 21.117-2.273 41.584-8.122 60.426-16.243-14.292 20.791-32.161 39.308-52.628 54.253z"></path>
	</symbol>

	<!-- google -->
	<symbol id="google-icon" viewBox="0 0 488 512">
		<path d="M488 261.8C488 403.3 391.1 504 248 504 110.8 504 0 393.2 0 256S110.8 8 248 8c66.8 0 123 24.5 166.3 64.9l-67.5 64.9C258.5 52.6 94.3 116.6 94.3 256c0 86.5 69.1 156.6 153.7 156.6 98.2 0 135-70.4 140.8-106.9H248v-85.3h236.1c2.3 12.7 3.9 24.9 3.9 41.4z"></path>
	</symbol>
	
	<!-- linkedin -->
	<symbol id="linkedin-icon" viewBox="0 0 448 512">
		<path d="M100.28 448H7.4V148.9h92.88zM53.79 108.1C24.09 108.1 0 83.5 0 53.8a53.79 53.79 0 0 1 107.58 0c0 29.7-24.1 54.3-53.79 54.3zM447.9 448h-92.68V302.4c0-34.7-.7-79.2-48.29-79.2-48.29 0-55.69 37.7-55.69 76.7V448h-92.78V148.9h89.08v40.8h1.3c12.4-23.5 42.69-48.3 87.88-48.3 94 0 111.28 61.9 111.28 142.3V448z"></path>
	</symbol>
	
	
	<symbol id="bonfire-icon" viewBox="0 0 512 512">
		<path d="M272.2 350.6c-.8-8.2-8.2-14.6-17.3-14.6-8.3 0-15.2 5.4-16.9 12.5L221.1 441c-.5 2.3-.8 4.6-.8 7 0 17.7 15.5 32 34.7 32s34.7-14.3 34.7-32c0-2.9-.4-5.7-1.2-8.4l-16.3-89zM310.1 355zM404.3 390.3c-1.9-1.4-3.6-2.9-5.6-3.9l-68.9-47.5c-6.3-3.8-13-3.7-17.9.9-4.5 4.1-5.1 10.4-1.8 15.4l53 65.8c1 1.5 2.3 2.8 3.6 4.2 8.5 9.1 27.2 9.6 37.5 0 10.4-9.8 10.3-27.2.1-34.9zM382.2 335zM450.4 322.5l-64.5-2.3c-4.2-.6-8 2.1-8.7 6-.7 3.6 1.5 7.1 5.1 8.8h.1l62.5 17.8c9 1.9 19.1-2.3 19.1-11.6 0-11.9-3.3-17.5-13.6-18.7zM129.5 335zM129.5 335c3.6-1.6 5.7-5.2 5.1-8.8-.7-4-4.5-6.6-8.7-6l-64.5 2.3C51 323.7 48 329.3 48 341.1c0 9.3 9.9 13.6 18.8 11.6l62.5-17.8c.1.1.1.1.2.1zM182.2 338.8l-68.9 47.4c-2 1.1-3.9 2.4-5.6 3.9-10.4 9.6-10.4 25.1 0 34.6 10.4 9.6 27.1 9.6 37.5 0 1.4-1.3 2.6-2.7 3.6-4.2l53-65.6c3.3-5 2.7-11.2-1.8-15.3-4.8-4.5-12.6-4.8-17.8-.8zM256 32s30.2 35.4 30.2 64.4c0 27.8-18.2 50.3-45.9 50.3-27.9 0-48.9-22.5-48.9-50.3l.4-6.9c-27.2 32.3-43.5 76.2-43.5 121.8 0 59.6 48.2 107.8 107.8 107.8s107.8-48.2 107.8-107.8C363.8 138.7 328 53.7 256 32zm-3.9 246.7c-24 0-43.4-18.9-43.4-42.3 0-21.8 14.1-37.2 37.9-42 23.8-4.9 48.5-16.3 62.3-34.8 5.3 17.4 7.9 35.7 7.9 54.4 0 35.7-29 64.7-64.7 64.7z"/>
	</symbol>

		
</svg>






