<?xml version="1.0" standalone="no"?>
<!DOCTYPE svg PUBLIC "-//W3C//DTD SVG 1.1//EN" "http://www.w3.org/Graphics/SVG/1.1/DTD/svg11.dtd" >
<svg>
<metadata>
Created by FontForge 20120731 at Mon Sep 23 23:41:26 2019
 By www
</metadata>
<defs>
<font id="DrukTextWide-Medium" horiz-adv-x="700" >
  <font-face 
    font-family="Druk Text Wide Medium"
    font-weight="400"
    font-stretch="normal"
    units-per-em="1000"
    panose-1="0 0 0 0 0 0 0 0 0 0"
    ascent="805"
    descent="-195"
    x-height="555"
    cap-height="744"
    bbox="-58 -280 1358 1239"
    underline-thickness="84"
    underline-position="-20"
    unicode-range="U+000D-2013"
  />
<missing-glyph horiz-adv-x="289" 
 />
    <glyph glyph-name=".notdef" horiz-adv-x="289" 
 />
    <glyph glyph-name="uni0000" horiz-adv-x="0" 
 />
    <glyph glyph-name="uni0000" horiz-adv-x="0" 
 />
    <glyph glyph-name="uni000D" unicode="&#xd;" horiz-adv-x="333" 
 />
    <glyph glyph-name="space" unicode=" " horiz-adv-x="289" 
 />
    <glyph glyph-name="exclam" unicode="!" horiz-adv-x="378" 
d="M77 744h224l-64 -502h-95zM297 177v-177h-215v177h215z" />
    <glyph glyph-name="comma" unicode="," horiz-adv-x="365" 
d="M115 -144q20 36 35 74.5t20 69.5h-104v194h233v-144q0 -54 -16 -105.5t-38 -88.5h-130z" />
    <glyph glyph-name="hyphen" unicode="-" horiz-adv-x="477" 
d="M74 381h329v-163h-329v163z" />
    <glyph glyph-name="period" unicode="." horiz-adv-x="365" 
d="M299 194v-194h-233v194h233z" />
    <glyph glyph-name="zero" unicode="0" horiz-adv-x="998" 
d="M520 756q162 0 263 -66q85 -56 123 -147q30 -72 30 -154v-30q0 -82 -30 -154q-41 -95 -124 -149q-101 -68 -262 -68h-42q-159 0 -262 68q-83 54 -123 149q-31 71 -31 154v30q0 84 31 155q39 93 123 147q103 65 262 65h42zM722 382q0 31 -8.5 64.5t-29.5 62.5
q-57 77 -185 77q-129 0 -185 -77q-38 -51 -38 -127v-14q0 -30 9 -65t31 -65q57 -79 184 -79q126 0 183 79q22 30 30.5 64.5t8.5 65.5v14z" />
    <glyph glyph-name="one" unicode="1" horiz-adv-x="525" 
d="M48 481v151q58 0 96 5.5t63 17.5t41 33t28 56h154v-744h-205v481h-177z" />
    <glyph glyph-name="two" unicode="2" horiz-adv-x="890" 
d="M62 0v108q0 49 8 84.5t34 68.5q65 80 252 139l119 36q73 22 100 40q14 9 19.5 20t5.5 26q0 34 -28 51q-36 21 -121 21q-93 0 -134 -45q-24 -28 -27 -73h-215v7q0 64 24 115q33 70 102 108q87 47 224 47h45q188 0 274 -67q74 -58 74 -163v-8q0 -49 -14.5 -84t-47.5 -62
q-32 -26 -84 -46t-133 -39l-61 -14q-84 -18 -147 -39q-35 -12 -52 -22q-20 -11 -25 -17q-7 -7 -7 -14h588v-178h-773z" />
    <glyph glyph-name="three" unicode="3" horiz-adv-x="898" 
d="M417 -11q-143 0 -234 49q-72 39 -106 106q-25 48 -25 100v9h220q3 -31 28 -56q42 -42 143 -42q106 0 150 30q30 21 30 59q0 31 -23 48t-77 17h-238v151h237q52 0 73 19q18 15 18 41q0 34 -28 50q-39 23 -144 23q-59 0 -91 -9q-56 -17 -68 -48l-6 -20h-214v11q0 45 21 86
q29 59 96 95q85 45 224 45h56q203 0 293 -64q66 -47 66 -127v-7q0 -53 -34 -92q-27 -30 -77 -46q56 -14 91 -53q43 -48 43 -117v-7q0 -104 -73 -167q-96 -84 -309 -84h-42z" />
    <glyph glyph-name="four" unicode="4" horiz-adv-x="932" 
d="M54 162v131l407 456h272v-427h158v-160h-158v-162h-204v162h-475zM529 322v287l-255 -287h255z" />
    <glyph glyph-name="five" unicode="5" horiz-adv-x="884" 
d="M430 -11q-141 0 -230 43q-71 34 -103 92q-24 43 -24 84v14h217q1 -8 8.5 -19t22.5 -21q41 -27 131 -27q91 0 134 28q36 22 36 64v6q0 43 -35 65q-42 24 -135 24q-87 0 -131 -22q-16 -8 -24 -18t-9 -18h-204v460h691v-169h-487v-138l18 13q36 22 103 37q40 8 88 8h10
q176 0 257 -74q63 -58 63 -157v-12q0 -46 -17 -91.5t-54 -82.5q-91 -89 -286 -89h-40z" />
    <glyph glyph-name="six" unicode="6" horiz-adv-x="939" 
d="M456 -11q-159 0 -255 65q-78 52 -113 146q-26 70 -26 153v23q0 79 27 151q35 97 114 155q97 71 253 71h30q207 0 302 -77q69 -57 69 -148v-1h-216q-6 14 -12 23t-21 18q-45 26 -133 26q-119 0 -170 -71q-33 -47 -33 -118v-7l24 18q40 29 122 45q45 9 110 9h22
q172 0 256 -63q73 -56 73 -149v-17q0 -61 -26 -109q-34 -64 -109 -99q-95 -44 -239 -44h-49zM300 236q0 -37 34 -58q49 -31 148 -31q109 0 155 32q30 21 30 56v6q0 35 -32 56q-46 28 -153 28q-102 0 -148 -28q-34 -22 -34 -56v-5z" />
    <glyph glyph-name="seven" unicode="7" horiz-adv-x="870" 
d="M820 744v-156l-69 -98q-115 -164 -150 -241q-38 -83 -43 -157q-3 -34 -3 -68v-24h-225v65q0 51 3.5 83.5t15.5 65.5q29 76 120 177q33 38 64 70q65 70 91 100q14 17 14 21h-372v-129h-203v291h757z" />
    <glyph glyph-name="eight" unicode="8" horiz-adv-x="923" 
d="M440 -12q-158 0 -251 40q-76 32 -109 89q-23 40 -23 94v13q0 66 51 111q47 42 116 55q-62 12 -101 47q-48 40 -48 102v12q0 81 59 129q89 71 306 71h42q151 0 243 -35q73 -28 102 -79q21 -37 21 -86v-12q0 -58 -47 -100q-42 -37 -103 -49q71 -13 118 -55q50 -45 50 -111
v-13q0 -52 -24 -94q-33 -57 -109 -89q-95 -40 -251 -40h-42zM630 533q0 28 -29 44q-42 23 -140 23t-140 -23q-29 -16 -29 -44v-4q0 -29 30 -45q41 -22 139 -22q99 0 140 22q29 16 29 45v4zM649 230q0 34 -32 54q-45 26 -156 26q-108 0 -155 -26q-32 -19 -32 -54v-3
q0 -34 33 -54q44 -27 154 -27q112 0 156 27q32 20 32 54v3z" />
    <glyph glyph-name="nine" unicode="9" horiz-adv-x="939" 
d="M450 -11q-207 0 -299 81q-37 32 -52.5 69t-15.5 74v1h215q3 -9 7 -16q12 -26 71 -41q32 -9 88 -9q120 0 170 72q33 46 33 117v7l-23 -18q-39 -28 -122 -45q-46 -9 -111 -9h-22q-173 0 -256 64q-73 55 -73 149v16q0 42 15.5 85t52.5 78q92 89 302 89h61q154 0 249 -65
q77 -54 111 -146q26 -70 26 -153v-23q0 -85 -25 -155q-34 -96 -112 -152q-97 -70 -253 -70h-37zM639 506q0 35 -34 58q-47 31 -148 31q-108 0 -154 -32q-31 -21 -31 -56v-6q0 -35 33 -55q44 -29 152 -29q105 0 149 29q33 20 33 55v5z" />
    <glyph glyph-name="colon" unicode=":" horiz-adv-x="375" 
d="M304 194v-194h-233v194h233zM304 531v-194h-233v194h233z" />
    <glyph glyph-name="semicolon" unicode=";" horiz-adv-x="375" 
d="M120 -144q20 36 35 74.5t20 69.5h-104v194h233v-144q0 -54 -16 -105.5t-38 -88.5h-130zM304 531v-194h-233v194h233z" />
    <glyph glyph-name="question" unicode="?" horiz-adv-x="806" 
d="M275 242v50q0 32 6.5 55t22.5 41q32 35 119 68l48 18q49 19 65 34q15 14 15 34q0 27 -25 42q-34 18 -126 18q-95 0 -129 -38q-12 -14 -15.5 -27t-4.5 -33h-211v12q0 94 53 152q80 85 279 85h56q178 0 263 -63q69 -51 69 -142v-7q0 -69 -38 -113q-40 -46 -136 -80l-49 -17
q-39 -14 -53 -28q-15 -15 -15 -48v-13h-194zM480 177v-177h-215v177h215z" />
    <glyph glyph-name="A" unicode="A" horiz-adv-x="973" 
d="M741 0l-61 138h-402l-60 -138h-207l330 744h276l345 -744h-221zM611 291l-135 303l-131 -303h266z" />
    <glyph glyph-name="B" unicode="B" horiz-adv-x="990" 
d="M92 744h543q144 0 213 -57q53 -44 53 -119v-11q0 -64 -47 -106q-39 -34 -90 -41q74 -13 119 -52q55 -50 55 -132v-11q0 -41 -14.5 -79t-45.5 -66q-77 -70 -240 -70h-546v744zM298 589v-133h307q81 0 81 65v2q0 30 -19 48t-62 18h-307zM298 310v-147h323q50 0 74 24
q19 19 19 51v4q0 32 -19 48q-23 20 -74 20h-323z" />
    <glyph glyph-name="C" unicode="C" horiz-adv-x="1007" 
d="M489 -11q-158 0 -262 63q-90 53 -132 144q-36 76 -36 163v30q0 89 36 164q44 91 132 142q105 60 262 60h46q216 0 325 -94q47 -40 69 -92t22 -108v-2h-212q-2 9 -9 29q-9 23 -34 44.5t-66 36.5q-42 16 -118 16q-127 0 -188 -63q-26 -27 -38.5 -63.5t-12.5 -75.5v-14
q0 -37 12.5 -73.5t39.5 -65.5q63 -70 188 -70q126 0 187 57q20 20 29 40t10 34h212v-3q0 -54 -21.5 -106.5t-67.5 -93.5q-52 -46 -133.5 -72.5t-193.5 -26.5h-46z" />
    <glyph glyph-name="D" unicode="D" horiz-adv-x="1007" 
d="M92 744h381q182 0 296 -56q97 -48 144 -133q37 -71 37 -157v-30q0 -92 -33 -165q-42 -92 -138 -142q-117 -61 -305 -61h-382v744zM298 166h166q165 0 230 72q24 27 33 61t9 73v6q0 86 -43 132q-64 69 -229 69h-166v-413z" />
    <glyph glyph-name="E" unicode="E" horiz-adv-x="852" 
d="M92 744h681v-162h-478v-121h463v-168h-463v-129h484v-164h-687v744z" />
    <glyph glyph-name="F" unicode="F" horiz-adv-x="838" 
d="M92 744h678v-165h-473v-133h459v-170h-459v-276h-205v744z" />
    <glyph glyph-name="G" unicode="G" horiz-adv-x="1044" 
d="M490 -11q-155 0 -257 60q-91 51 -135 142q-39 77 -39 170v27q0 90 38 165q45 91 134 142q105 59 263 59h34q222 0 335 -86q48 -36 70 -82.5t22 -95.5v-2h-213l-12 24q-21 39 -102 62q-43 12 -116 12q-127 0 -188 -64q-51 -54 -51 -139v-13q0 -39 13 -76.5t41 -66.5
q67 -70 192 -70q112 0 174 50q23 19 34 39q8 18 10 27h-202v133h429v-406h-164q-1 13 -9 53q-8 31 -16 50q-8 -10 -24 -26q-47 -47 -131 -73q-48 -15 -114 -15h-16z" />
    <glyph glyph-name="H" unicode="H" horiz-adv-x="1011" 
d="M92 0v744h206v-276h415v276h206v-744h-206v299h-415v-299h-206z" />
    <glyph glyph-name="I" unicode="I" horiz-adv-x="390" 
d="M298 744v-744h-206v744h206z" />
    <glyph glyph-name="J" unicode="J" horiz-adv-x="868" 
d="M172 45q-72 48 -104 130q-27 65 -27 138v6h213q2 -56 29 -97q38 -58 122 -58h4q91 0 132 56q34 46 34 126v398h206v-398q0 -60 -14.5 -120t-49.5 -109q-42 -59 -113.5 -94t-179.5 -35h-33q-134 0 -219 57z" />
    <glyph glyph-name="K" unicode="K" horiz-adv-x="923" 
d="M298 0h-206v744h206v-306l348 306h262l-392 -341l409 -403h-269l-358 350v-350z" />
    <glyph glyph-name="L" unicode="L" horiz-adv-x="802" 
d="M92 744h206v-569h455v-175h-661v744z" />
    <glyph glyph-name="M" unicode="M" horiz-adv-x="1196" 
d="M92 0v744h274l237 -504l244 504h257v-744h-201v487l-226 -487h-161l-226 487v-487h-198z" />
    <glyph glyph-name="N" unicode="N" horiz-adv-x="1031" 
d="M737 0l-444 482v-482h-201v744h212l435 -479v479h200v-744h-202z" />
    <glyph glyph-name="O" unicode="O" horiz-adv-x="1056" 
d="M550 756q124 0 212 -32.5t142 -89.5q48 -51 70.5 -115t22.5 -130v-30q0 -65 -22.5 -129.5t-70.5 -115.5q-55 -59 -143 -92.5t-211 -33.5h-44q-161 0 -270 61q-95 53 -138 143q-39 77 -39 167v30q0 90 39 167q44 90 138 141q108 59 270 59h44zM783 381q0 84 -49 137
q-63 68 -206 68q-140 0 -205 -68q-50 -53 -50 -137v-14q0 -37 12 -73t39 -64q66 -71 204 -71q142 0 206 71q49 53 49 137v14z" />
    <glyph glyph-name="P" unicode="P" horiz-adv-x="956" 
d="M298 238v-238h-206v744h504q165 0 242 -69q66 -61 66 -178v-11q0 -116 -67 -177q-77 -71 -241 -71h-298zM298 404h283q109 0 109 85v4q0 40 -27 62.5t-82 22.5h-283v-174z" />
    <glyph glyph-name="Q" unicode="Q" horiz-adv-x="1058" 
d="M446 -10q-146 11 -237 75q-80 55 -118 140q-32 72 -32 154v30q0 65 20.5 128t67.5 114q116 125 360 125h44q168 0 277 -61q89 -50 135 -143q36 -73 36 -163v-30q0 -56 -16 -112.5t-52 -104.5q-90 -119 -271 -146l114 -151h-328v145zM785 381q0 83 -48 135q-65 70 -208 70
q-144 0 -207 -68q-49 -53 -49 -137v-14q0 -83 50 -137q66 -71 206 -71q143 0 207 71q49 53 49 137v14z" />
    <glyph glyph-name="R" unicode="R" horiz-adv-x="981" 
d="M871 292.5q42 -47.5 42 -127.5v-77q0 -43 4 -58q3 -14 8 -25v-5h-213q-3 10 -4 16q-3 11 -3 36v61q0 74 -31.5 107t-107.5 33h-268v-253h-206v744h501q188 0 264 -69q51 -47 51 -130v-10q0 -68 -42.5 -114.5t-114.5 -62.5q78 -18 120 -65.5zM298 422h287q58 0 85 24
q22 19 22 55v2q0 36 -22 55q-25 22 -85 22h-287v-158z" />
    <glyph glyph-name="S" unicode="S" horiz-adv-x="925" 
d="M451 -13q-163 0 -256 44q-77 37 -110 100q-23 44 -23 103v11h224q2 -40 30 -66q41 -41 145 -41h7q103 0 146 29q29 19 29 60q0 37 -30 54q-36 19 -122 23l-99 3q-171 6 -252 70q-70 55 -70 147v9q0 101 70 154q89 66 300 66h34q220 0 311 -72q63 -51 63 -146v-11h-221
q-3 16 -9.5 29.5t-21.5 24.5q-42 28 -136 28h-10q-94 0 -131 -17q-32 -16 -32 -49q0 -32 28 -48q33 -19 116 -23l103 -4q187 -7 264 -67q65 -50 65 -151v-12q0 -106 -66 -165q-93 -83 -317 -83h-29z" />
    <glyph glyph-name="T" unicode="T" horiz-adv-x="873" 
d="M334 0v574h-288v170h781v-170h-288v-574h-205z" />
    <glyph glyph-name="U" unicode="U" horiz-adv-x="1014" 
d="M226 54q-81 53 -114 149q-25 69 -25 163v378h206v-373q0 -87 36 -135q53 -72 177 -72h5q126 0 177 72q34 49 34 135v373h205v-378q0 -91 -26 -164q-36 -95 -117 -148q-97 -65 -261 -65h-29q-170 0 -268 65z" />
    <glyph glyph-name="V" unicode="V" horiz-adv-x="975" 
d="M629 0h-271l-345 744h240l242 -564l243 564h224z" />
    <glyph glyph-name="W" unicode="W" horiz-adv-x="1340" 
d="M513 0h-239l-256 744h221l164 -535l156 535h240l157 -537l163 537h203l-247 -744h-246l-158 521z" />
    <glyph glyph-name="X" unicode="X" horiz-adv-x="940" 
d="M681 0l-213 242l-216 -242h-242l328 378l-323 366h261l202 -231l201 231h237l-313 -364l327 -380h-249z" />
    <glyph glyph-name="Y" unicode="Y" horiz-adv-x="927" 
d="M367 0v272l-369 472h255l223 -295l223 295h230l-356 -473v-271h-206z" />
    <glyph glyph-name="Z" unicode="Z" horiz-adv-x="908" 
d="M835 0h-761v143l456 433h-453v168h754v-143l-475 -431h479v-170z" />
    <glyph glyph-name="a" unicode="a" horiz-adv-x="783" 
d="M435 22q-59 -33 -147 -33h-16q-110 0 -167 54q-26 23 -39 55t-13 67v4q0 76 54 116q61 44 195 55l152 13q23 2 32.5 10.5t9.5 25.5q0 26 -17 37q-27 17 -99 17q-66 0 -94 -22q-18 -16 -18 -39h-200v2q0 68 45 113q73 71 250 71h31q179 0 249 -66q26 -25 34.5 -55t8.5 -66
v-183q0 -28 9 -38.5t37 -10.5h21v-149h-158q-40 0 -65 25q-22 22 -28 52q-25 -32 -67 -55zM462 153q17 16 25.5 35.5t8.5 36.5v43q-25 -10 -122 -26q-73 -12 -97 -25q-27 -13 -27 -43v-2q0 -28 22.5 -44.5t70.5 -16.5q77 0 119 42z" />
    <glyph glyph-name="b" unicode="b" horiz-adv-x="847" 
d="M495 -11q-87 0 -155 34q-43 21 -73 51q-11 -32 -16 -74h-168v757h195v-271q31 31 71 50q67 30 149 30h13q146 0 220 -88q31 -38 46 -87t15 -102v-17q0 -49 -15.5 -98.5t-46.5 -88.5q-75 -96 -221 -96h-14zM590 280q0 56 -29 93q-38 48 -121 48h-10q-80 0 -121 -46
q-33 -38 -33 -95v-3q0 -56 33 -93q41 -48 121 -48h10q83 0 121 49q29 37 29 92v3z" />
    <glyph glyph-name="c" unicode="c" horiz-adv-x="801" 
d="M736 141.5q-13 -38.5 -45 -71.5q-81 -85 -259 -85h-49q-126 0 -208 51q-65 40 -97 114q-24 56 -24 120v14q0 63 23 121q28 70 96 114q79 51 209 51h46q178 0 261 -83q32 -32 46 -70t14 -73v-1h-204q-3 26 -26 49q-38 36 -111 36h-10q-78 0 -114 -48q-28 -37 -28 -98v-1
q0 -62 31 -101q38 -50 115 -50h10q73 0 110 39q15 17 19 30q4 12 4 19h204q0 -38 -13 -76.5z" />
    <glyph glyph-name="d" unicode="d" horiz-adv-x="847" 
d="M764 757v-757h-194v72q-22 -27 -64 -49q-64 -34 -149 -34h-13q-142 0 -220 88q-34 38 -51 88t-17 105v17q0 54 17 103.5t50 88.5q77 87 219 87h12q83 0 146 -27q41 -18 69 -43v261h195zM407 421q-82 0 -120 -48q-15 -20 -22.5 -44.5t-7.5 -48.5v-3q0 -23 7.5 -47.5
t22.5 -44.5q39 -49 120 -49h11q79 0 120 48q33 37 33 93v3q0 57 -33 95q-41 46 -120 46h-11z" />
    <glyph glyph-name="e" unicode="e" horiz-adv-x="811" 
d="M756 173q0 -34 -20 -68q-28 -49 -92 -80q-79 -38 -211 -38h-37q-186 0 -273 92q-69 72 -69 191v14q0 114 64 189q82 94 261 94h44q194 0 274 -98q61 -76 61 -215v-18h-505q7 -53 43 -82q42 -34 125 -34q71 0 107 23q15 10 19 18l6 12h203zM296 412q-33 -23 -41 -71h294
q0 39 -26 65q-34 34 -119 34q-70 0 -108 -28z" />
    <glyph glyph-name="f" unicode="f" horiz-adv-x="520" 
d="M481 636h-82q-23 0 -33.5 -10.5t-10.5 -35.5v-35h126v-140h-126v-415h-194v415h-123v140h123v45q0 77 35 115q40 42 138 42h147v-121z" />
    <glyph glyph-name="g" unicode="g" horiz-adv-x="846" 
d="M405 -206q-187 0 -267 67q-51 43 -51 115v4h207q5 -9 10 -15.5t16 -11.5q28 -16 96 -16h11q75 0 112 34q31 27 31 83v41q-14 -14 -27.5 -25t-35.5 -21q-64 -30 -150 -30h-14q-150 0 -225 89q-32 37 -47 83.5t-15 94.5v17q0 50 16 96.5t48 82.5q35 39 90 61.5t130 22.5h11
q89 0 150 -26q42 -18 68 -42v57h194v-493q0 -123 -69 -189q-81 -79 -255 -79h-34zM408 422q-81 0 -121 -42q-30 -33 -30 -85v-3q0 -50 31 -84q40 -43 120 -43h12q77 0 119 42q16 17 24 39t8 45v4q0 51 -34 86q-41 41 -118 41h-11z" />
    <glyph glyph-name="h" unicode="h" horiz-adv-x="828" 
d="M83 757h195v-289q29 36 73 61q69 39 150 39h10q114 0 179 -67q28 -29 42.5 -66t14.5 -75v-360h-195v289q0 51 -30 87q-34 39 -103 39q-67 0 -105 -41q-18 -18 -27 -42.5t-9 -49.5v-282h-195v757z" />
    <glyph glyph-name="i" unicode="i" horiz-adv-x="361" 
d="M280 757v-140h-199v140h199zM278 555v-555h-195v555h195z" />
    <glyph glyph-name="j" unicode="j" horiz-adv-x="361" 
d="M280 757v-140h-199v140h199zM44 -46q22 0 30.5 10t8.5 34v557h195v-604q0 -69 -29.5 -105.5t-86.5 -36.5h-178v145h60z" />
    <glyph glyph-name="k" unicode="k" horiz-adv-x="726" 
d="M278 0h-195v757h195v-424l198 222h225l-232 -249l257 -306h-232l-216 257v-257z" />
    <glyph glyph-name="l" unicode="l" horiz-adv-x="361" 
d="M278 757v-757h-195v757h195z" />
    <glyph glyph-name="m" unicode="m" horiz-adv-x="1247" 
d="M83 0v555h193v-90q28 39 69 64q65 39 142 39h8q75 0 124 -30t75 -81q34 46 88 76q67 35 144 35h9q120 0 181 -74q50 -61 50 -156v-338h-195v289q0 53 -27 87q-32 39 -95 39q-62 0 -96 -41q-15 -18 -23 -42t-8 -50v-282h-194v289q0 53 -27 87q-33 39 -95 39q-63 0 -96 -41
q-15 -18 -23.5 -42.5t-8.5 -49.5v-282h-195z" />
    <glyph glyph-name="n" unicode="n" horiz-adv-x="828" 
d="M83 555h193v-88q29 37 74 62q69 39 151 39h10q114 0 179 -67q28 -29 42.5 -66t14.5 -75v-360h-195v289q0 51 -30 87q-34 39 -103 39q-67 0 -105 -41q-18 -18 -27 -42.5t-9 -49.5v-282h-195v555z" />
    <glyph glyph-name="o" unicode="o" horiz-adv-x="827" 
d="M398 -15q-105 0 -175 28t-109 76q-33 40 -47 86.5t-14 92.5v14q0 61 23 119q29 73 100 117q86 52 221 52h33q140 0 226 -52q69 -43 98 -117q20 -54 20 -118v-16q0 -64 -20 -117q-29 -72 -98 -114q-86 -51 -227 -51h-31zM419 131q83 0 123 52q31 40 31 97q0 58 -31 97
q-40 50 -123 50h-11q-85 0 -125 -50q-29 -37 -29 -97q0 -59 29 -97q40 -52 125 -52h11z" />
    <glyph glyph-name="p" unicode="p" horiz-adv-x="848" 
d="M83 555h193v-71q28 30 73 51q67 31 150 31h13q146 0 220 -89q31 -38 46 -87t15 -101v-17q0 -48 -15.5 -97.5t-46.5 -89.5q-35 -45 -90 -70.5t-130 -25.5h-14q-80 0 -148 32q-40 19 -71 50v-262h-195v746zM591 280q0 56 -29 93q-38 48 -121 48h-10q-80 0 -121 -46
q-33 -38 -33 -95v-3q0 -56 33 -93q41 -48 121 -48h10q83 0 121 49q29 37 29 92v3z" />
    <glyph glyph-name="q" unicode="q" horiz-adv-x="847" 
d="M350 566q88 0 155 -31q41 -19 73 -51q12 35 15 71h171v-746h-194v262q-21 -25 -65 -48q-66 -34 -150 -34h-13q-142 0 -220 91q-33 39 -49.5 89t-16.5 103v17q0 52 16 101.5t49 87.5q36 41 90 64.5t127 23.5h12zM407 421q-82 0 -120 -48q-15 -20 -22.5 -44.5t-7.5 -48.5
v-3q0 -23 7.5 -47.5t22.5 -44.5q39 -49 120 -49h11q79 0 120 48q33 37 33 93v3q0 57 -33 95q-41 46 -120 46h-11z" />
    <glyph glyph-name="r" unicode="r" horiz-adv-x="697" 
d="M83 0v555h193v-91q20 37 53 62q54 41 128 41h6q93 0 144 -59q45 -54 45 -156v-31q0 -20 -1 -32h-201v8q0 60 -17.5 89t-61.5 29q-45 0 -69 -32.5t-24 -87.5v-295h-195z" />
    <glyph glyph-name="s" unicode="s" horiz-adv-x="737" 
d="M350 -13q-178 0 -251 71q-46 45 -46 106v5h209q3 -23 20 -36q27 -23 91 -23h2q59 0 86 17q21 13 21 36q0 12 -3.5 20.5t-14.5 14.5q-23 14 -88 18l-76 6q-125 7 -189 53q-55 39 -55 113v6q0 80 56 123q69 51 231 51h27q178 0 252 -58q29 -22 39 -50.5t10 -61.5v-3h-204
q-1 2 -4.5 13t-16.5 22q-26 19 -85 19h-3q-63 0 -84 -12q-22 -13 -22 -34q0 -22 20 -36q21 -15 80 -16l76 -3q140 -6 203 -50q28 -20 40 -48.5t12 -65.5v-7q0 -40 -11.5 -72.5t-41.5 -57.5q-73 -60 -254 -60h-26z" />
    <glyph glyph-name="t" unicode="t" horiz-adv-x="534" 
d="M480 0h-177q-69 0 -106.5 38t-37.5 112v265h-121v140h121v169h194v-169h127v-140h-127v-204q0 -34 12 -48t46 -14h69v-149z" />
    <glyph glyph-name="u" unicode="u" horiz-adv-x="822" 
d="M739 0h-193v88q-10 -14 -29 -31t-44 -31q-69 -39 -150 -39h-9q-112 0 -176 67q-28 29 -42.5 66t-14.5 75v360h195v-289q0 -54 30 -87q33 -38 100 -38q65 0 103 41q35 37 35 91v282h195v-555z" />
    <glyph glyph-name="v" unicode="v" horiz-adv-x="763" 
d="M264 0l-246 555h216l156 -401l157 401h198l-233 -555h-248z" />
    <glyph glyph-name="w" unicode="w" horiz-adv-x="1152" 
d="M466 0h-227l-217 555h207l133 -385l115 385h220l124 -385l123 385h185l-196 -555h-229l-122 360z" />
    <glyph glyph-name="x" unicode="x" horiz-adv-x="752" 
d="M525 0l-149 159l-145 -159h-221l249 278l-257 277h239l142 -155l137 155h215l-239 -273l254 -282h-225z" />
    <glyph glyph-name="y" unicode="y" horiz-adv-x="753" 
d="M123 -52h122q29 0 29 23v1q0 9 -3 20l-15 34l-238 529h214l154 -398l153 398h196l-254 -611q-30 -71 -71 -103t-108 -32h-179v139z" />
    <glyph glyph-name="z" unicode="z" horiz-adv-x="738" 
d="M680 0h-621v134l344 275h-342v146h606v-131l-354 -272h367v-152z" />
    <glyph glyph-name="Agrave" unicode="&#xc0;" horiz-adv-x="973" 
d="M741 0l-61 138h-402l-60 -138h-207l330 744h276l345 -744h-221zM611 291l-135 303l-131 -303h266zM376 805l-106 148h222l91 -148h-207z" />
    <glyph glyph-name="Aacute" unicode="&#xc1;" horiz-adv-x="973" 
d="M741 0l-61 138h-402l-60 -138h-207l330 744h276l345 -744h-221zM611 291l-135 303l-131 -303h266zM582 805h-207l91 148h222z" />
    <glyph glyph-name="Acircumflex" unicode="&#xc2;" horiz-adv-x="973" 
d="M741 0l-61 138h-402l-60 -138h-207l330 744h276l345 -744h-221zM611 291l-135 303l-131 -303h266zM595 953l140 -150h-193l-63 63l-63 -63h-190l140 150h229z" />
    <glyph glyph-name="Atilde" unicode="&#xc3;" horiz-adv-x="973" 
d="M741 0l-61 138h-402l-60 -138h-207l330 744h276l345 -744h-221zM611 291l-135 303l-131 -303h266zM393 800h-112v78q0 39 17 65q23 33 70 33h2q25 0 50.5 -8t73.5 -28q23 -11 36 -15q15 -5 21 -5q14 0 14 22v40h112v-78q0 -39 -17 -64q-22 -34 -70 -34h-2q-25 0 -50.5 8
t-73.5 28q-23 11 -36 15q-15 5 -21 5q-14 0 -14 -22v-40z" />
    <glyph glyph-name="Adieresis" unicode="&#xc4;" horiz-adv-x="973" 
d="M741 0l-61 138h-402l-60 -138h-207l330 744h276l345 -744h-221zM611 291l-135 303l-131 -303h266zM448 945v-140h-194v140h194zM704 945v-140h-194v140h194z" />
    <glyph glyph-name="Aring" unicode="&#xc5;" horiz-adv-x="973" 
d="M741 0l-61 138h-402l-60 -138h-207l330 744h276l345 -744h-221zM611 291l-135 303l-131 -303h266zM348 1018q45 38 131 38q87 0 132 -38q37 -33 37 -92q0 -57 -36 -90q-43 -40 -133 -40q-88 0 -131 40q-37 34 -37 90q0 59 37 92zM530 966q-17 15 -51 15t-50.5 -15
t-16.5 -40q0 -24 17 -40t50 -16t50.5 16t17.5 40q0 25 -17 40z" />
    <glyph glyph-name="AE" unicode="&#xc6;" horiz-adv-x="1273" 
d="M568 0v135h-281l-82 -135h-219l465 744h741v-162h-421v-121h407v-168h-407v-129h429v-164h-632zM568 281v320l-193 -320h193z" />
    <glyph glyph-name="Ccedilla" unicode="&#xc7;" horiz-adv-x="1007" 
d="M643 -226q-37 -32 -127 -32h-145v90h109q20 0 27.5 5.5t7.5 16.5q0 23 -35 23h-80v118q-95 12 -162 49.5t-109 93.5q-37 49 -53.5 106.5t-16.5 114.5v30q0 89 36 164q44 91 132 142q105 60 262 60h46q216 0 325 -94q47 -40 69 -92t22 -108v-2h-212q-2 9 -9 29
q-9 23 -34 44.5t-66 36.5q-42 16 -118 16q-127 0 -188 -63q-26 -27 -38.5 -63.5t-12.5 -75.5v-14q0 -37 12.5 -73.5t39.5 -65.5q63 -70 188 -70q126 0 187 57q20 20 29 40t10 34h212v-3q0 -54 -21.5 -106.5t-67.5 -93.5q-52 -46 -133.5 -72.5t-193.5 -26.5h-24v-39h5
q90 0 127 -27q30 -22 30 -74v-3q0 -47 -30 -72z" />
    <glyph glyph-name="Egrave" unicode="&#xc8;" horiz-adv-x="852" 
d="M92 744h681v-162h-478v-121h463v-168h-463v-129h484v-164h-687v744zM355 805l-106 148h222l91 -148h-207z" />
    <glyph glyph-name="Eacute" unicode="&#xc9;" horiz-adv-x="852" 
d="M92 744h681v-162h-478v-121h463v-168h-463v-129h484v-164h-687v744zM537 805h-207l91 148h222z" />
    <glyph glyph-name="Ecircumflex" unicode="&#xca;" horiz-adv-x="852" 
d="M92 744h681v-162h-478v-121h463v-168h-463v-129h484v-164h-687v744zM550 953l140 -150h-193l-63 63l-63 -63h-190l140 150h229z" />
    <glyph glyph-name="Edieresis" unicode="&#xcb;" horiz-adv-x="852" 
d="M92 744h681v-162h-478v-121h463v-168h-463v-129h484v-164h-687v744zM403 945v-140h-194v140h194zM659 945v-140h-194v140h194z" />
    <glyph glyph-name="Igrave" unicode="&#xcc;" horiz-adv-x="390" 
d="M298 744v-744h-206v744h206zM92 805l-106 148h222l91 -148h-207z" />
    <glyph glyph-name="Iacute" unicode="&#xcd;" horiz-adv-x="390" 
d="M298 744v-744h-206v744h206zM298 805h-207l91 148h222z" />
    <glyph glyph-name="Icircumflex" unicode="&#xce;" horiz-adv-x="390" 
d="M298 744v-744h-206v744h206zM311 953l140 -150h-193l-63 63l-63 -63h-190l140 150h229z" />
    <glyph glyph-name="Idieresis" unicode="&#xcf;" horiz-adv-x="390" 
d="M298 744v-744h-206v744h206zM164 945v-140h-194v140h194zM420 945v-140h-194v140h194z" />
    <glyph glyph-name="Ntilde" unicode="&#xd1;" horiz-adv-x="1031" 
d="M737 0l-444 482v-482h-201v744h212l435 -479v479h200v-744h-202zM439 800h-112v78q0 39 17 65q23 33 70 33h2q25 0 50.5 -8t73.5 -28q23 -11 36 -15q15 -5 21 -5q14 0 14 22v40h112v-78q0 -39 -17 -64q-22 -34 -70 -34h-2q-25 0 -50.5 8t-73.5 28q-23 11 -36 15
q-15 5 -21 5q-14 0 -14 -22v-40z" />
    <glyph glyph-name="Ograve" unicode="&#xd2;" horiz-adv-x="1056" 
d="M550 756q124 0 212 -32.5t142 -89.5q48 -51 70.5 -115t22.5 -130v-30q0 -65 -22.5 -129.5t-70.5 -115.5q-55 -59 -143 -92.5t-211 -33.5h-44q-161 0 -270 61q-95 53 -138 143q-39 77 -39 167v30q0 90 39 167q44 90 138 141q108 59 270 59h44zM783 381q0 84 -49 137
q-63 68 -206 68q-140 0 -205 -68q-50 -53 -50 -137v-14q0 -37 12 -73t39 -64q66 -71 204 -71q142 0 206 71q49 53 49 137v14zM425 805l-106 148h222l91 -148h-207z" />
    <glyph glyph-name="Oacute" unicode="&#xd3;" horiz-adv-x="1056" 
d="M550 756q124 0 212 -32.5t142 -89.5q48 -51 70.5 -115t22.5 -130v-30q0 -65 -22.5 -129.5t-70.5 -115.5q-55 -59 -143 -92.5t-211 -33.5h-44q-161 0 -270 61q-95 53 -138 143q-39 77 -39 167v30q0 90 39 167q44 90 138 141q108 59 270 59h44zM783 381q0 84 -49 137
q-63 68 -206 68q-140 0 -205 -68q-50 -53 -50 -137v-14q0 -37 12 -73t39 -64q66 -71 204 -71q142 0 206 71q49 53 49 137v14zM631 805h-207l91 148h222z" />
    <glyph glyph-name="Ocircumflex" unicode="&#xd4;" horiz-adv-x="1056" 
d="M550 756q124 0 212 -32.5t142 -89.5q48 -51 70.5 -115t22.5 -130v-30q0 -65 -22.5 -129.5t-70.5 -115.5q-55 -59 -143 -92.5t-211 -33.5h-44q-161 0 -270 61q-95 53 -138 143q-39 77 -39 167v30q0 90 39 167q44 90 138 141q108 59 270 59h44zM783 381q0 84 -49 137
q-63 68 -206 68q-140 0 -205 -68q-50 -53 -50 -137v-14q0 -37 12 -73t39 -64q66 -71 204 -71q142 0 206 71q49 53 49 137v14zM644 953l140 -150h-193l-63 63l-63 -63h-190l140 150h229z" />
    <glyph glyph-name="Otilde" unicode="&#xd5;" horiz-adv-x="1056" 
d="M550 756q124 0 212 -32.5t142 -89.5q48 -51 70.5 -115t22.5 -130v-30q0 -65 -22.5 -129.5t-70.5 -115.5q-55 -59 -143 -92.5t-211 -33.5h-44q-161 0 -270 61q-95 53 -138 143q-39 77 -39 167v30q0 90 39 167q44 90 138 141q108 59 270 59h44zM783 381q0 84 -49 137
q-63 68 -206 68q-140 0 -205 -68q-50 -53 -50 -137v-14q0 -37 12 -73t39 -64q66 -71 204 -71q142 0 206 71q49 53 49 137v14zM442 800h-112v78q0 39 17 65q23 33 70 33h2q25 0 50.5 -8t73.5 -28q23 -11 36 -15q15 -5 21 -5q14 0 14 22v40h112v-78q0 -39 -17 -64
q-22 -34 -70 -34h-2q-25 0 -50.5 8t-73.5 28q-23 11 -36 15q-15 5 -21 5q-14 0 -14 -22v-40z" />
    <glyph glyph-name="Odieresis" unicode="&#xd6;" horiz-adv-x="1056" 
d="M550 756q124 0 212 -32.5t142 -89.5q48 -51 70.5 -115t22.5 -130v-30q0 -65 -22.5 -129.5t-70.5 -115.5q-55 -59 -143 -92.5t-211 -33.5h-44q-161 0 -270 61q-95 53 -138 143q-39 77 -39 167v30q0 90 39 167q44 90 138 141q108 59 270 59h44zM783 381q0 84 -49 137
q-63 68 -206 68q-140 0 -205 -68q-50 -53 -50 -137v-14q0 -37 12 -73t39 -64q66 -71 204 -71q142 0 206 71q49 53 49 137v14zM497 945v-140h-194v140h194zM753 945v-140h-194v140h194z" />
    <glyph glyph-name="Ugrave" unicode="&#xd9;" horiz-adv-x="1014" 
d="M226 54q-81 53 -114 149q-25 69 -25 163v378h206v-373q0 -87 36 -135q53 -72 177 -72h5q126 0 177 72q34 49 34 135v373h205v-378q0 -91 -26 -164q-36 -95 -117 -148q-97 -65 -261 -65h-29q-170 0 -268 65zM405 805l-106 148h222l91 -148h-207z" />
    <glyph glyph-name="Uacute" unicode="&#xda;" horiz-adv-x="1014" 
d="M226 54q-81 53 -114 149q-25 69 -25 163v378h206v-373q0 -87 36 -135q53 -72 177 -72h5q126 0 177 72q34 49 34 135v373h205v-378q0 -91 -26 -164q-36 -95 -117 -148q-97 -65 -261 -65h-29q-170 0 -268 65zM610 805h-207l91 148h222z" />
    <glyph glyph-name="Ucircumflex" unicode="&#xdb;" horiz-adv-x="1014" 
d="M226 54q-81 53 -114 149q-25 69 -25 163v378h206v-373q0 -87 36 -135q53 -72 177 -72h5q126 0 177 72q34 49 34 135v373h205v-378q0 -91 -26 -164q-36 -95 -117 -148q-97 -65 -261 -65h-29q-170 0 -268 65zM624 953l140 -150h-193l-63 63l-63 -63h-190l140 150h229z" />
    <glyph glyph-name="Udieresis" unicode="&#xdc;" horiz-adv-x="1014" 
d="M226 54q-81 53 -114 149q-25 69 -25 163v378h206v-373q0 -87 36 -135q53 -72 177 -72h5q126 0 177 72q34 49 34 135v373h205v-378q0 -91 -26 -164q-36 -95 -117 -148q-97 -65 -261 -65h-29q-170 0 -268 65zM477 945v-140h-194v140h194zM733 945v-140h-194v140h194z" />
    <glyph glyph-name="Yacute" unicode="&#xdd;" horiz-adv-x="927" 
d="M367 0v272l-369 472h255l223 -295l223 295h230l-356 -473v-271h-206zM579 805h-207l91 148h222z" />
    <glyph glyph-name="germandbls" unicode="&#xdf;" horiz-adv-x="830" 
d="M714 390q63 -54 63 -146v-12q0 -107 -62 -164q-74 -68 -246 -68h-122v141h109q71 0 100 31q21 24 21 66v1q0 42 -21 64q-29 29 -100 29h-109v141h95q56 0 79 28q16 20 16 52v2q0 32 -21 52q-28 25 -104 25h-6q-72 0 -102 -30q-26 -26 -26 -79v-523h-195v541q0 61 18 103
q25 57 91 90q81 38 220 38h6q172 0 250 -59q60 -46 60 -122v-6q0 -58 -39 -99q-32 -33 -83 -48q64 -11 108 -48z" />
    <glyph glyph-name="agrave" unicode="&#xe0;" horiz-adv-x="783" 
d="M435 22q-59 -33 -147 -33h-16q-110 0 -167 54q-26 23 -39 55t-13 67v4q0 76 54 116q61 44 195 55l152 13q23 2 32.5 10.5t9.5 25.5q0 26 -17 37q-27 17 -99 17q-66 0 -94 -22q-18 -16 -18 -39h-200v2q0 68 45 113q73 71 250 71h31q179 0 249 -66q26 -25 34.5 -55t8.5 -66
v-183q0 -28 9 -38.5t37 -10.5h21v-149h-158q-40 0 -65 25q-22 22 -28 52q-25 -32 -67 -55zM462 153q17 16 25.5 35.5t8.5 36.5v43q-25 -10 -122 -26q-73 -12 -97 -25q-27 -13 -27 -43v-2q0 -28 22.5 -44.5t70.5 -16.5q77 0 119 42zM391 766l88 -149h-195l-111 149h218z" />
    <glyph glyph-name="aacute" unicode="&#xe1;" horiz-adv-x="783" 
d="M435 22q-59 -33 -147 -33h-16q-110 0 -167 54q-26 23 -39 55t-13 67v4q0 76 54 116q61 44 195 55l152 13q23 2 32.5 10.5t9.5 25.5q0 26 -17 37q-27 17 -99 17q-66 0 -94 -22q-18 -16 -18 -39h-200v2q0 68 45 113q73 71 250 71h31q179 0 249 -66q26 -25 34.5 -55t8.5 -66
v-183q0 -28 9 -38.5t37 -10.5h21v-149h-158q-40 0 -65 25q-22 22 -28 52q-25 -32 -67 -55zM462 153q17 16 25.5 35.5t8.5 36.5v43q-25 -10 -122 -26q-73 -12 -97 -25q-27 -13 -27 -43v-2q0 -28 22.5 -44.5t70.5 -16.5q77 0 119 42zM282 616l88 149h218l-111 -149h-195z" />
    <glyph glyph-name="acircumflex" unicode="&#xe2;" horiz-adv-x="783" 
d="M435 22q-59 -33 -147 -33h-16q-110 0 -167 54q-26 23 -39 55t-13 67v4q0 76 54 116q61 44 195 55l152 13q23 2 32.5 10.5t9.5 25.5q0 26 -17 37q-27 17 -99 17q-66 0 -94 -22q-18 -16 -18 -39h-200v2q0 68 45 113q73 71 250 71h31q179 0 249 -66q26 -25 34.5 -55t8.5 -66
v-183q0 -28 9 -38.5t37 -10.5h21v-149h-158q-40 0 -65 25q-22 22 -28 52q-25 -32 -67 -55zM462 153q17 16 25.5 35.5t8.5 36.5v43q-25 -10 -122 -26q-73 -12 -97 -25q-27 -13 -27 -43v-2q0 -28 22.5 -44.5t70.5 -16.5q77 0 119 42zM497 766l137 -150h-195l-59 65l-59 -65
h-191l136 150h231z" />
    <glyph glyph-name="atilde" unicode="&#xe3;" horiz-adv-x="783" 
d="M435 22q-59 -33 -147 -33h-16q-110 0 -167 54q-26 23 -39 55t-13 67v4q0 76 54 116q61 44 195 55l152 13q23 2 32.5 10.5t9.5 25.5q0 26 -17 37q-27 17 -99 17q-66 0 -94 -22q-18 -16 -18 -39h-200v2q0 68 45 113q73 71 250 71h31q179 0 249 -66q26 -25 34.5 -55t8.5 -66
v-183q0 -28 9 -38.5t37 -10.5h21v-149h-158q-40 0 -65 25q-22 22 -28 52q-25 -32 -67 -55zM462 153q17 16 25.5 35.5t8.5 36.5v43q-25 -10 -122 -26q-73 -12 -97 -25q-27 -13 -27 -43v-2q0 -28 22.5 -44.5t70.5 -16.5q77 0 119 42zM567 718q0 -39 -16 -64q-22 -34 -70 -34
h-2q-26 0 -49 7.5t-61 27.5l-32 16q-12 5 -18 5q-14 0 -14 -22v-40h-112v79q0 39 17 65q21 33 69 33h2q26 0 49 -7.5t61 -27.5l32 -16q12 -5 18 -5q14 0 14 22v40h112v-79z" />
    <glyph glyph-name="adieresis" unicode="&#xe4;" horiz-adv-x="783" 
d="M435 22q-59 -33 -147 -33h-16q-110 0 -167 54q-26 23 -39 55t-13 67v4q0 76 54 116q61 44 195 55l152 13q23 2 32.5 10.5t9.5 25.5q0 26 -17 37q-27 17 -99 17q-66 0 -94 -22q-18 -16 -18 -39h-200v2q0 68 45 113q73 71 250 71h31q179 0 249 -66q26 -25 34.5 -55t8.5 -66
v-183q0 -28 9 -38.5t37 -10.5h21v-149h-158q-40 0 -65 25q-22 22 -28 52q-25 -32 -67 -55zM462 153q17 16 25.5 35.5t8.5 36.5v43q-25 -10 -122 -26q-73 -12 -97 -25q-27 -13 -27 -43v-2q0 -28 22.5 -44.5t70.5 -16.5q77 0 119 42zM350 757v-140h-191v140h191zM601 757v-140
h-191v140h191z" />
    <glyph glyph-name="aring" unicode="&#xe5;" horiz-adv-x="783" 
d="M435 22q-59 -33 -147 -33h-16q-110 0 -167 54q-26 23 -39 55t-13 67v4q0 76 54 116q61 44 195 55l152 13q23 2 32.5 10.5t9.5 25.5q0 26 -17 37q-27 17 -99 17q-66 0 -94 -22q-18 -16 -18 -39h-200v2q0 68 45 113q73 71 250 71h31q179 0 249 -66q26 -25 34.5 -55t8.5 -66
v-183q0 -28 9 -38.5t37 -10.5h21v-149h-158q-40 0 -65 25q-22 22 -28 52q-25 -32 -67 -55zM462 153q17 16 25.5 35.5t8.5 36.5v43q-25 -10 -122 -26q-73 -12 -97 -25q-27 -13 -27 -43v-2q0 -28 22.5 -44.5t70.5 -16.5q77 0 119 42zM249 832q45 38 131 38q87 0 132 -38
q37 -33 37 -91t-36 -91q-42 -39 -133 -39q-89 0 -131 39q-37 34 -37 91q0 58 37 91zM330 701q17 -16 50 -16t50.5 16t17.5 40t-17 39t-51 15t-50.5 -14.5t-16.5 -39.5q0 -24 17 -40z" />
    <glyph glyph-name="ae" unicode="&#xe6;" horiz-adv-x="1237" 
d="M1183 167q0 -30 -20 -64q-30 -48 -93 -78q-79 -38 -209 -38h-35q-112 0 -190 35q-62 26 -97 74q-29 -44 -80 -71q-69 -36 -167 -36h-16q-115 0 -172 54q-26 23 -38.5 54.5t-12.5 67.5v4q0 76 53 116q59 44 191 55l147 13q23 2 32.5 10.5t9.5 25.5q0 26 -17 37
q-27 17 -94 17q-63 0 -89 -22q-18 -17 -18 -39h-200v2q0 39 16 73q24 49 80 76q75 35 194 35h31q160 0 220 -52q30 24 81 37.5t119 13.5h43q191 0 271 -98q62 -77 62 -215v-18h-500q8 -53 43 -82q40 -34 122 -34q72 0 105 22q13 7 18 16l6 9h204zM727 412q-31 -25 -40 -74
h289q0 41 -26 68q-37 35 -117 35q-69 0 -106 -29zM453 153q16 16 24.5 35.5t8.5 36.5v43q-23 -9 -117 -26q-67 -12 -93 -26q-14 -7 -20 -17t-6 -25v-2q0 -28 21 -44.5t67 -16.5q73 0 115 42z" />
    <glyph glyph-name="ccedilla" unicode="&#xe7;" horiz-adv-x="801" 
d="M537 -226q-37 -32 -127 -32h-145v90h109q20 0 27.5 5.5t7.5 16.5q0 23 -35 23h-80v115q-133 23 -195 117q-45 68 -45 161v14q0 63 23 121q28 70 96 114q79 51 209 51h46q178 0 261 -83q32 -32 46 -70t14 -73v-1h-204q-3 26 -26 49q-38 36 -111 36h-10q-78 0 -114 -48
q-28 -37 -28 -98v-1q0 -62 31 -101q38 -50 115 -50h10q73 0 110 39q15 17 19 30q4 12 4 19h204q0 -38 -13 -76.5t-45 -71.5q-81 -85 -259 -85h-27v-35h5q90 0 127 -27q30 -22 30 -74v-3q0 -47 -30 -72z" />
    <glyph glyph-name="egrave" unicode="&#xe8;" horiz-adv-x="811" 
d="M756 173q0 -34 -20 -68q-28 -49 -92 -80q-79 -38 -211 -38h-37q-186 0 -273 92q-69 72 -69 191v14q0 114 64 189q82 94 261 94h44q194 0 274 -98q61 -76 61 -215v-18h-505q7 -53 43 -82q42 -34 125 -34q71 0 107 23q15 10 19 18l6 12h203zM296 412q-33 -23 -41 -71h294
q0 39 -26 65q-34 34 -119 34q-70 0 -108 -28zM413 766l88 -149h-195l-111 149h218z" />
    <glyph glyph-name="eacute" unicode="&#xe9;" horiz-adv-x="811" 
d="M756 173q0 -34 -20 -68q-28 -49 -92 -80q-79 -38 -211 -38h-37q-186 0 -273 92q-69 72 -69 191v14q0 114 64 189q82 94 261 94h44q194 0 274 -98q61 -76 61 -215v-18h-505q7 -53 43 -82q42 -34 125 -34q71 0 107 23q15 10 19 18l6 12h203zM296 412q-33 -23 -41 -71h294
q0 39 -26 65q-34 34 -119 34q-70 0 -108 -28zM304 617l88 149h218l-111 -149h-195z" />
    <glyph glyph-name="ecircumflex" unicode="&#xea;" horiz-adv-x="811" 
d="M756 173q0 -34 -20 -68q-28 -49 -92 -80q-79 -38 -211 -38h-37q-186 0 -273 92q-69 72 -69 191v14q0 114 64 189q82 94 261 94h44q194 0 274 -98q61 -76 61 -215v-18h-505q7 -53 43 -82q42 -34 125 -34q71 0 107 23q15 10 19 18l6 12h203zM296 412q-33 -23 -41 -71h294
q0 39 -26 65q-34 34 -119 34q-70 0 -108 -28zM519 766l137 -150h-195l-59 65l-59 -65h-191l136 150h231z" />
    <glyph glyph-name="edieresis" unicode="&#xeb;" horiz-adv-x="811" 
d="M756 173q0 -34 -20 -68q-28 -49 -92 -80q-79 -38 -211 -38h-37q-186 0 -273 92q-69 72 -69 191v14q0 114 64 189q82 94 261 94h44q194 0 274 -98q61 -76 61 -215v-18h-505q7 -53 43 -82q42 -34 125 -34q71 0 107 23q15 10 19 18l6 12h203zM296 412q-33 -23 -41 -71h294
q0 39 -26 65q-34 34 -119 34q-70 0 -108 -28zM372 757v-140h-191v140h191zM623 757v-140h-191v140h191z" />
    <glyph glyph-name="igrave" unicode="&#xec;" horiz-adv-x="361" 
d="M188 766l88 -149h-195l-107 149h214zM278 555v-555h-195v555h195z" />
    <glyph glyph-name="iacute" unicode="&#xed;" horiz-adv-x="361" 
d="M85 617l88 149h214l-107 -149h-195zM278 555v-555h-195v555h195z" />
    <glyph glyph-name="icircumflex" unicode="&#xee;" horiz-adv-x="361" 
d="M297 766l117 -150h-184l-50 68l-50 -68h-180l116 150h231zM278 555v-555h-195v555h195z" />
    <glyph glyph-name="idieresis" unicode="&#xef;" horiz-adv-x="361" 
d="M152 757v-140h-172v140h172zM380 757v-140h-172v140h172zM278 555v-555h-195v555h195z" />
    <glyph glyph-name="ntilde" unicode="&#xf1;" horiz-adv-x="828" 
d="M83 555h193v-88q29 37 74 62q69 39 151 39h10q114 0 179 -67q28 -29 42.5 -66t14.5 -75v-360h-195v289q0 51 -30 87q-34 39 -103 39q-67 0 -105 -41q-18 -18 -27 -42.5t-9 -49.5v-282h-195v555zM603 718q0 -39 -16 -64q-22 -34 -70 -34h-2q-26 0 -49 7.5t-61 27.5l-32 16
q-12 5 -18 5q-14 0 -14 -22v-40h-112v79q0 39 17 65q21 33 69 33h2q26 0 49 -7.5t61 -27.5l32 -16q12 -5 18 -5q14 0 14 22v40h112v-79z" />
    <glyph glyph-name="ograve" unicode="&#xf2;" horiz-adv-x="827" 
d="M398 -15q-105 0 -175 28t-109 76q-33 40 -47 86.5t-14 92.5v14q0 61 23 119q29 73 100 117q86 52 221 52h33q140 0 226 -52q69 -43 98 -117q20 -54 20 -118v-16q0 -64 -20 -117q-29 -72 -98 -114q-86 -51 -227 -51h-31zM419 131q83 0 123 52q31 40 31 97q0 58 -31 97
q-40 50 -123 50h-11q-85 0 -125 -50q-29 -37 -29 -97q0 -59 29 -97q40 -52 125 -52h11zM425 766l88 -149h-195l-111 149h218z" />
    <glyph glyph-name="oacute" unicode="&#xf3;" horiz-adv-x="827" 
d="M398 -15q-105 0 -175 28t-109 76q-33 40 -47 86.5t-14 92.5v14q0 61 23 119q29 73 100 117q86 52 221 52h33q140 0 226 -52q69 -43 98 -117q20 -54 20 -118v-16q0 -64 -20 -117q-29 -72 -98 -114q-86 -51 -227 -51h-31zM419 131q83 0 123 52q31 40 31 97q0 58 -31 97
q-40 50 -123 50h-11q-85 0 -125 -50q-29 -37 -29 -97q0 -59 29 -97q40 -52 125 -52h11zM316 617l88 149h218l-111 -149h-195z" />
    <glyph glyph-name="ocircumflex" unicode="&#xf4;" horiz-adv-x="827" 
d="M398 -15q-105 0 -175 28t-109 76q-33 40 -47 86.5t-14 92.5v14q0 61 23 119q29 73 100 117q86 52 221 52h33q140 0 226 -52q69 -43 98 -117q20 -54 20 -118v-16q0 -64 -20 -117q-29 -72 -98 -114q-86 -51 -227 -51h-31zM419 131q83 0 123 52q31 40 31 97q0 58 -31 97
q-40 50 -123 50h-11q-85 0 -125 -50q-29 -37 -29 -97q0 -59 29 -97q40 -52 125 -52h11zM531 766l137 -150h-195l-59 65l-59 -65h-191l136 150h231z" />
    <glyph glyph-name="otilde" unicode="&#xf5;" horiz-adv-x="827" 
d="M398 -15q-105 0 -175 28t-109 76q-33 40 -47 86.5t-14 92.5v14q0 61 23 119q29 73 100 117q86 52 221 52h33q140 0 226 -52q69 -43 98 -117q20 -54 20 -118v-16q0 -64 -20 -117q-29 -72 -98 -114q-86 -51 -227 -51h-31zM419 131q83 0 123 52q31 40 31 97q0 58 -31 97
q-40 50 -123 50h-11q-85 0 -125 -50q-29 -37 -29 -97q0 -59 29 -97q40 -52 125 -52h11zM601 718q0 -39 -16 -64q-22 -34 -70 -34h-2q-26 0 -49 7.5t-61 27.5l-32 16q-12 5 -18 5q-14 0 -14 -22v-40h-112v79q0 39 17 65q21 33 69 33h2q26 0 49 -7.5t61 -27.5l32 -16
q12 -5 18 -5q14 0 14 22v40h112v-79z" />
    <glyph glyph-name="odieresis" unicode="&#xf6;" horiz-adv-x="827" 
d="M398 -15q-105 0 -175 28t-109 76q-33 40 -47 86.5t-14 92.5v14q0 61 23 119q29 73 100 117q86 52 221 52h33q140 0 226 -52q69 -43 98 -117q20 -54 20 -118v-16q0 -64 -20 -117q-29 -72 -98 -114q-86 -51 -227 -51h-31zM419 131q83 0 123 52q31 40 31 97q0 58 -31 97
q-40 50 -123 50h-11q-85 0 -125 -50q-29 -37 -29 -97q0 -59 29 -97q40 -52 125 -52h11zM384 757v-140h-191v140h191zM635 757v-140h-191v140h191z" />
    <glyph glyph-name="ugrave" unicode="&#xf9;" horiz-adv-x="822" 
d="M739 0h-193v88q-10 -14 -29 -31t-44 -31q-69 -39 -150 -39h-9q-112 0 -176 67q-28 29 -42.5 66t-14.5 75v360h195v-289q0 -54 30 -87q33 -38 100 -38q65 0 103 41q35 37 35 91v282h195v-555zM421 766l88 -149h-195l-111 149h218z" />
    <glyph glyph-name="uacute" unicode="&#xfa;" horiz-adv-x="822" 
d="M739 0h-193v88q-10 -14 -29 -31t-44 -31q-69 -39 -150 -39h-9q-112 0 -176 67q-28 29 -42.5 66t-14.5 75v360h195v-289q0 -54 30 -87q33 -38 100 -38q65 0 103 41q35 37 35 91v282h195v-555zM311 617l88 149h218l-111 -149h-195z" />
    <glyph glyph-name="ucircumflex" unicode="&#xfb;" horiz-adv-x="822" 
d="M739 0h-193v88q-10 -14 -29 -31t-44 -31q-69 -39 -150 -39h-9q-112 0 -176 67q-28 29 -42.5 66t-14.5 75v360h195v-289q0 -54 30 -87q33 -38 100 -38q65 0 103 41q35 37 35 91v282h195v-555zM527 766l137 -150h-195l-59 65l-59 -65h-191l136 150h231z" />
    <glyph glyph-name="udieresis" unicode="&#xfc;" horiz-adv-x="822" 
d="M739 0h-193v88q-10 -14 -29 -31t-44 -31q-69 -39 -150 -39h-9q-112 0 -176 67q-28 29 -42.5 66t-14.5 75v360h195v-289q0 -54 30 -87q33 -38 100 -38q65 0 103 41q35 37 35 91v282h195v-555zM380 757v-140h-191v140h191zM631 757v-140h-191v140h191z" />
    <glyph glyph-name="yacute" unicode="&#xfd;" horiz-adv-x="753" 
d="M123 -52h122q29 0 29 23v1q0 9 -3 20l-15 34l-238 529h214l154 -398l153 398h196l-254 -611q-30 -71 -71 -103t-108 -32h-179v139zM288 617l88 149h218l-111 -149h-195z" />
    <glyph glyph-name="ydieresis" unicode="&#xff;" horiz-adv-x="753" 
d="M123 -52h122q29 0 29 23v1q0 9 -3 20l-15 34l-238 529h214l154 -398l153 398h196l-254 -611q-30 -71 -71 -103t-108 -32h-179v139zM356 757v-140h-191v140h191zM607 757v-140h-191v140h191z" />
    <glyph glyph-name="Amacron" unicode="&#x100;" horiz-adv-x="973" 
d="M741 0l-61 138h-402l-60 -138h-207l330 744h276l345 -744h-221zM611 291l-135 303l-131 -303h266zM291 820v118h377v-118h-377z" />
    <glyph glyph-name="amacron" unicode="&#x101;" horiz-adv-x="783" 
d="M435 22q-59 -33 -147 -33h-16q-110 0 -167 54q-26 23 -39 55t-13 67v4q0 76 54 116q61 44 195 55l152 13q23 2 32.5 10.5t9.5 25.5q0 26 -17 37q-27 17 -99 17q-66 0 -94 -22q-18 -16 -18 -39h-200v2q0 68 45 113q73 71 250 71h31q179 0 249 -66q26 -25 34.5 -55t8.5 -66
v-183q0 -28 9 -38.5t37 -10.5h21v-149h-158q-40 0 -65 25q-22 22 -28 52q-25 -32 -67 -55zM462 153q17 16 25.5 35.5t8.5 36.5v43q-25 -10 -122 -26q-73 -12 -97 -25q-27 -13 -27 -43v-2q0 -28 22.5 -44.5t70.5 -16.5q77 0 119 42zM197 630v118h366v-118h-366z" />
    <glyph glyph-name="Abreve" unicode="&#x102;" horiz-adv-x="973" 
d="M741 0l-61 138h-402l-60 -138h-207l330 744h276l345 -744h-221zM611 291l-135 303l-131 -303h266zM310 861q-19 23 -27.5 49t-8.5 50v3h146q2 -19 13 -32q14 -21 47 -21q31 0 45 21q10 13 12 32h145v-3q0 -22 -9.5 -48.5t-29.5 -50.5q-24 -28 -61 -44.5t-88 -16.5h-30
q-106 0 -154 61z" />
    <glyph glyph-name="abreve" unicode="&#x103;" horiz-adv-x="783" 
d="M435 22q-59 -33 -147 -33h-16q-110 0 -167 54q-26 23 -39 55t-13 67v4q0 76 54 116q61 44 195 55l152 13q23 2 32.5 10.5t9.5 25.5q0 26 -17 37q-27 17 -99 17q-66 0 -94 -22q-18 -16 -18 -39h-200v2q0 68 45 113q73 71 250 71h31q179 0 249 -66q26 -25 34.5 -55t8.5 -66
v-183q0 -28 9 -38.5t37 -10.5h21v-149h-158q-40 0 -65 25q-22 22 -28 52q-25 -32 -67 -55zM462 153q17 16 25.5 35.5t8.5 36.5v43q-25 -10 -122 -26q-73 -12 -97 -25q-27 -13 -27 -43v-2q0 -28 22.5 -44.5t70.5 -16.5q77 0 119 42zM215 673q-34 43 -34 99v3h147
q0 -17 10 -31q13 -22 46 -22q30 0 45 22q9 14 9 31h145v-3q0 -23 -9 -49t-29 -50q-50 -61 -147 -61h-30q-105 0 -153 61z" />
    <glyph glyph-name="Aogonek" unicode="&#x104;" horiz-adv-x="973" 
d="M741 0l-61 138h-402l-60 -138h-207l330 744h276l345 -744h-221zM611 291l-135 303l-131 -303h266zM831 -193q-131 0 -131 76v2q0 39 44 65t133 50h85q-40 -26 -53 -37q-19 -16 -19 -33q0 -25 38 -25h45v-98h-142z" />
    <glyph glyph-name="aogonek" unicode="&#x105;" horiz-adv-x="783" 
d="M764 -95v-98h-142q-131 0 -131 76v2q0 39 44 65t133 50h-73q-40 0 -65 25q-22 22 -28 52q-25 -32 -67 -55q-59 -33 -147 -33h-16q-110 0 -167 54q-26 23 -39 55t-13 67v4q0 76 54 116q61 44 195 55l152 13q23 2 32.5 10.5t9.5 25.5q0 26 -17 37q-27 17 -99 17
q-66 0 -94 -22q-18 -16 -18 -39h-200v2q0 68 45 113q73 71 250 71h31q179 0 249 -66q26 -25 34.5 -55t8.5 -66v-183q0 -28 9 -38.5t37 -10.5h21v-149q-40 -26 -53 -37q-19 -16 -19 -33q0 -25 38 -25h45zM496 268q-25 -10 -122 -26q-73 -12 -97 -25q-27 -13 -27 -43v-2
q0 -28 22.5 -44.5t70.5 -16.5q77 0 119 42q17 16 25.5 35.5t8.5 36.5v43z" />
    <glyph glyph-name="Cacute" unicode="&#x106;" horiz-adv-x="1007" 
d="M489 -11q-158 0 -262 63q-90 53 -132 144q-36 76 -36 163v30q0 89 36 164q44 91 132 142q105 60 262 60h46q216 0 325 -94q47 -40 69 -92t22 -108v-2h-212q-2 9 -9 29q-9 23 -34 44.5t-66 36.5q-42 16 -118 16q-127 0 -188 -63q-26 -27 -38.5 -63.5t-12.5 -75.5v-14
q0 -37 12.5 -73.5t39.5 -65.5q63 -70 188 -70q126 0 187 57q20 20 29 40t10 34h212v-3q0 -54 -21.5 -106.5t-67.5 -93.5q-52 -46 -133.5 -72.5t-193.5 -26.5h-46zM615 805h-207l91 148h222z" />
    <glyph glyph-name="cacute" unicode="&#x107;" horiz-adv-x="801" 
d="M736 141.5q-13 -38.5 -45 -71.5q-81 -85 -259 -85h-49q-126 0 -208 51q-65 40 -97 114q-24 56 -24 120v14q0 63 23 121q28 70 96 114q79 51 209 51h46q178 0 261 -83q32 -32 46 -70t14 -73v-1h-204q-3 26 -26 49q-38 36 -111 36h-10q-78 0 -114 -48q-28 -37 -28 -98v-1
q0 -62 31 -101q38 -50 115 -50h10q73 0 110 39q15 17 19 30q4 12 4 19h204q0 -38 -13 -76.5zM308 617l88 149h218l-111 -149h-195z" />
    <glyph glyph-name="Ccircumflex" unicode="&#x108;" horiz-adv-x="1007" 
d="M489 -11q-158 0 -262 63q-90 53 -132 144q-36 76 -36 163v30q0 89 36 164q44 91 132 142q105 60 262 60h46q216 0 325 -94q47 -40 69 -92t22 -108v-2h-212q-2 9 -9 29q-9 23 -34 44.5t-66 36.5q-42 16 -118 16q-127 0 -188 -63q-26 -27 -38.5 -63.5t-12.5 -75.5v-14
q0 -37 12.5 -73.5t39.5 -65.5q63 -70 188 -70q126 0 187 57q20 20 29 40t10 34h212v-3q0 -54 -21.5 -106.5t-67.5 -93.5q-52 -46 -133.5 -72.5t-193.5 -26.5h-46zM628 953l140 -150h-193l-63 63l-63 -63h-190l140 150h229z" />
    <glyph glyph-name="ccircumflex" unicode="&#x109;" horiz-adv-x="801" 
d="M736 141.5q-13 -38.5 -45 -71.5q-81 -85 -259 -85h-49q-126 0 -208 51q-65 40 -97 114q-24 56 -24 120v14q0 63 23 121q28 70 96 114q79 51 209 51h46q178 0 261 -83q32 -32 46 -70t14 -73v-1h-204q-3 26 -26 49q-38 36 -111 36h-10q-78 0 -114 -48q-28 -37 -28 -98v-1
q0 -62 31 -101q38 -50 115 -50h10q73 0 110 39q15 17 19 30q4 12 4 19h204q0 -38 -13 -76.5zM523 766l137 -150h-195l-59 65l-59 -65h-191l136 150h231z" />
    <glyph glyph-name="Cdotaccent" unicode="&#x10a;" horiz-adv-x="1007" 
d="M489 -11q-158 0 -262 63q-90 53 -132 144q-36 76 -36 163v30q0 89 36 164q44 91 132 142q105 60 262 60h46q216 0 325 -94q47 -40 69 -92t22 -108v-2h-212q-2 9 -9 29q-9 23 -34 44.5t-66 36.5q-42 16 -118 16q-127 0 -188 -63q-26 -27 -38.5 -63.5t-12.5 -75.5v-14
q0 -37 12.5 -73.5t39.5 -65.5q63 -70 188 -70q126 0 187 57q20 20 29 40t10 34h212v-3q0 -54 -21.5 -106.5t-67.5 -93.5q-52 -46 -133.5 -72.5t-193.5 -26.5h-46zM612 945v-140h-199v140h199z" />
    <glyph glyph-name="cdotaccent" unicode="&#x10b;" horiz-adv-x="801" 
d="M736 141.5q-13 -38.5 -45 -71.5q-81 -85 -259 -85h-49q-126 0 -208 51q-65 40 -97 114q-24 56 -24 120v14q0 63 23 121q28 70 96 114q79 51 209 51h46q178 0 261 -83q32 -32 46 -70t14 -73v-1h-204q-3 26 -26 49q-38 36 -111 36h-10q-78 0 -114 -48q-28 -37 -28 -98v-1
q0 -62 31 -101q38 -50 115 -50h10q73 0 110 39q15 17 19 30q4 12 4 19h204q0 -38 -13 -76.5zM506 757v-140h-199v140h199z" />
    <glyph glyph-name="Ccaron" unicode="&#x10c;" horiz-adv-x="1007" 
d="M489 -11q-158 0 -262 63q-90 53 -132 144q-36 76 -36 163v30q0 89 36 164q44 91 132 142q105 60 262 60h46q216 0 325 -94q47 -40 69 -92t22 -108v-2h-212q-2 9 -9 29q-9 23 -34 44.5t-66 36.5q-42 16 -118 16q-127 0 -188 -63q-26 -27 -38.5 -63.5t-12.5 -75.5v-14
q0 -37 12.5 -73.5t39.5 -65.5q63 -70 188 -70q126 0 187 57q20 20 29 40t10 34h212v-3q0 -54 -21.5 -106.5t-67.5 -93.5q-52 -46 -133.5 -72.5t-193.5 -26.5h-46zM396 805l-140 148h194l63 -64l63 64h191l-140 -148h-231z" />
    <glyph glyph-name="ccaron" unicode="&#x10d;" horiz-adv-x="801" 
d="M736 141.5q-13 -38.5 -45 -71.5q-81 -85 -259 -85h-49q-126 0 -208 51q-65 40 -97 114q-24 56 -24 120v14q0 63 23 121q28 70 96 114q79 51 209 51h46q178 0 261 -83q32 -32 46 -70t14 -73v-1h-204q-3 26 -26 49q-38 36 -111 36h-10q-78 0 -114 -48q-28 -37 -28 -98v-1
q0 -62 31 -101q38 -50 115 -50h10q73 0 110 39q15 17 19 30q4 12 4 19h204q0 -38 -13 -76.5zM290 617l-137 149h195l59 -64l59 64h191l-136 -149h-231z" />
    <glyph glyph-name="Emacron" unicode="&#x112;" horiz-adv-x="852" 
d="M92 744h681v-162h-478v-121h463v-168h-463v-129h484v-164h-687v744zM246 820v118h377v-118h-377z" />
    <glyph glyph-name="emacron" unicode="&#x113;" horiz-adv-x="811" 
d="M756 173q0 -34 -20 -68q-28 -49 -92 -80q-79 -38 -211 -38h-37q-186 0 -273 92q-69 72 -69 191v14q0 114 64 189q82 94 261 94h44q194 0 274 -98q61 -76 61 -215v-18h-505q7 -53 43 -82q42 -34 125 -34q71 0 107 23q15 10 19 18l6 12h203zM296 412q-33 -23 -41 -71h294
q0 39 -26 65q-34 34 -119 34q-70 0 -108 -28zM219 630v118h366v-118h-366z" />
    <glyph glyph-name="Ebreve" unicode="&#x114;" horiz-adv-x="852" 
d="M92 744h681v-162h-478v-121h463v-168h-463v-129h484v-164h-687v744zM265 861q-19 23 -27.5 49t-8.5 50v3h146q2 -19 13 -32q14 -21 47 -21q31 0 45 21q10 13 12 32h145v-3q0 -22 -9.5 -48.5t-29.5 -50.5q-24 -28 -61 -44.5t-88 -16.5h-30q-106 0 -154 61z" />
    <glyph glyph-name="ebreve" unicode="&#x115;" horiz-adv-x="811" 
d="M756 173q0 -34 -20 -68q-28 -49 -92 -80q-79 -38 -211 -38h-37q-186 0 -273 92q-69 72 -69 191v14q0 114 64 189q82 94 261 94h44q194 0 274 -98q61 -76 61 -215v-18h-505q7 -53 43 -82q42 -34 125 -34q71 0 107 23q15 10 19 18l6 12h203zM296 412q-33 -23 -41 -71h294
q0 39 -26 65q-34 34 -119 34q-70 0 -108 -28zM234 673q-34 43 -34 99v3h147q0 -17 10 -31q13 -22 46 -22q30 0 45 22q9 14 9 31h145v-3q0 -23 -9 -49t-29 -50q-50 -61 -147 -61h-30q-105 0 -153 61z" />
    <glyph glyph-name="Edotaccent" unicode="&#x116;" horiz-adv-x="852" 
d="M92 744h681v-162h-478v-121h463v-168h-463v-129h484v-164h-687v744zM534 945v-140h-199v140h199z" />
    <glyph glyph-name="edotaccent" unicode="&#x117;" horiz-adv-x="811" 
d="M756 173q0 -34 -20 -68q-28 -49 -92 -80q-79 -38 -211 -38h-37q-186 0 -273 92q-69 72 -69 191v14q0 114 64 189q82 94 261 94h44q194 0 274 -98q61 -76 61 -215v-18h-505q7 -53 43 -82q42 -34 125 -34q71 0 107 23q15 10 19 18l6 12h203zM296 412q-33 -23 -41 -71h294
q0 39 -26 65q-34 34 -119 34q-70 0 -108 -28zM502 757v-140h-199v140h199z" />
    <glyph glyph-name="Eogonek" unicode="&#x118;" horiz-adv-x="852" 
d="M92 744h681v-162h-478v-121h463v-168h-463v-129h484v-164h-687v744zM552 -193q-131 0 -131 76v2q0 39 44 65t133 50h85q-40 -26 -53 -37q-19 -16 -19 -33q0 -25 38 -25h45v-98h-142z" />
    <glyph glyph-name="eogonek" unicode="&#x119;" horiz-adv-x="811" 
d="M646 -193h-144q-132 0 -132 77v2q0 35 38 60.5t112 47.5q-45 -5 -87 -5h-37q-186 0 -273 92q-69 72 -69 191v14q0 114 64 189q82 94 261 94h44q194 0 274 -98q61 -76 61 -215v-18h-505q7 -53 43 -82q42 -34 125 -34q71 0 107 23q15 10 19 18l6 12h203q0 -35 -21 -70
q-26 -43 -89 -89q-44 -30 -65 -49q-19 -16 -19 -35q0 -26 39 -26h45v-99zM296 414q-33 -23 -41 -71h294q0 39 -26 65q-34 34 -119 34q-70 0 -108 -28z" />
    <glyph glyph-name="Ecaron" unicode="&#x11a;" horiz-adv-x="852" 
d="M92 744h681v-162h-478v-121h463v-168h-463v-129h484v-164h-687v744zM318 805l-140 148h194l63 -64l63 64h191l-140 -148h-231z" />
    <glyph glyph-name="ecaron" unicode="&#x11b;" horiz-adv-x="811" 
d="M756 173q0 -34 -20 -68q-28 -49 -92 -80q-79 -38 -211 -38h-37q-186 0 -273 92q-69 72 -69 191v14q0 114 64 189q82 94 261 94h44q194 0 274 -98q61 -76 61 -215v-18h-505q7 -53 43 -82q42 -34 125 -34q71 0 107 23q15 10 19 18l6 12h203zM296 412q-33 -23 -41 -71h294
q0 39 -26 65q-34 34 -119 34q-70 0 -108 -28zM286 617l-137 149h195l59 -64l59 64h191l-136 -149h-231z" />
    <glyph glyph-name="Gcircumflex" unicode="&#x11c;" horiz-adv-x="1044" 
d="M490 -11q-155 0 -257 60q-91 51 -135 142q-39 77 -39 170v27q0 90 38 165q45 91 134 142q105 59 263 59h34q222 0 335 -86q48 -36 70 -82.5t22 -95.5v-2h-213l-12 24q-21 39 -102 62q-43 12 -116 12q-127 0 -188 -64q-51 -54 -51 -139v-13q0 -39 13 -76.5t41 -66.5
q67 -70 192 -70q112 0 174 50q23 19 34 39q8 18 10 27h-202v133h429v-406h-164q-1 13 -9 53q-8 31 -16 50q-8 -10 -24 -26q-47 -47 -131 -73q-48 -15 -114 -15h-16zM627 953l140 -150h-193l-63 63l-63 -63h-190l140 150h229z" />
    <glyph glyph-name="gcircumflex" unicode="&#x11d;" horiz-adv-x="846" 
d="M405 -206q-187 0 -267 67q-51 43 -51 115v4h207q5 -9 10 -15.5t16 -11.5q28 -16 96 -16h11q75 0 112 34q31 27 31 83v41q-14 -14 -27.5 -25t-35.5 -21q-64 -30 -150 -30h-14q-150 0 -225 89q-32 37 -47 83.5t-15 94.5v17q0 50 16 96.5t48 82.5q35 39 90 61.5t130 22.5h11
q89 0 150 -26q42 -18 68 -42v57h194v-493q0 -123 -69 -189q-81 -79 -255 -79h-34zM408 422q-81 0 -121 -42q-30 -33 -30 -85v-3q0 -50 31 -84q40 -43 120 -43h12q77 0 119 42q16 17 24 39t8 45v4q0 51 -34 86q-41 41 -118 41h-11zM522 766l137 -150h-195l-59 65l-59 -65
h-191l136 150h231z" />
    <glyph glyph-name="Gbreve" unicode="&#x11e;" horiz-adv-x="1044" 
d="M490 -11q-155 0 -257 60q-91 51 -135 142q-39 77 -39 170v27q0 90 38 165q45 91 134 142q105 59 263 59h34q222 0 335 -86q48 -36 70 -82.5t22 -95.5v-2h-213l-12 24q-21 39 -102 62q-43 12 -116 12q-127 0 -188 -64q-51 -54 -51 -139v-13q0 -39 13 -76.5t41 -66.5
q67 -70 192 -70q112 0 174 50q23 19 34 39q8 18 10 27h-202v133h429v-406h-164q-1 13 -9 53q-8 31 -16 50q-8 -10 -24 -26q-47 -47 -131 -73q-48 -15 -114 -15h-16zM342 861q-19 23 -27.5 49t-8.5 50v3h146q2 -19 13 -32q14 -21 47 -21q31 0 45 21q10 13 12 32h145v-3
q0 -22 -9.5 -48.5t-29.5 -50.5q-24 -28 -61 -44.5t-88 -16.5h-30q-106 0 -154 61z" />
    <glyph glyph-name="gbreve" unicode="&#x11f;" horiz-adv-x="846" 
d="M405 -206q-187 0 -267 67q-51 43 -51 115v4h207q5 -9 10 -15.5t16 -11.5q28 -16 96 -16h11q75 0 112 34q31 27 31 83v41q-14 -14 -27.5 -25t-35.5 -21q-64 -30 -150 -30h-14q-150 0 -225 89q-32 37 -47 83.5t-15 94.5v17q0 50 16 96.5t48 82.5q35 39 90 61.5t130 22.5h11
q89 0 150 -26q42 -18 68 -42v57h194v-493q0 -123 -69 -189q-81 -79 -255 -79h-34zM408 422q-81 0 -121 -42q-30 -33 -30 -85v-3q0 -50 31 -84q40 -43 120 -43h12q77 0 119 42q16 17 24 39t8 45v4q0 51 -34 86q-41 41 -118 41h-11zM237 673q-34 43 -34 99v3h147q0 -17 10 -31
q13 -22 46 -22q30 0 45 22q9 14 9 31h145v-3q0 -23 -9 -49t-29 -50q-50 -61 -147 -61h-30q-105 0 -153 61z" />
    <glyph glyph-name="Gdotaccent" unicode="&#x120;" horiz-adv-x="1044" 
d="M490 -11q-155 0 -257 60q-91 51 -135 142q-39 77 -39 170v27q0 90 38 165q45 91 134 142q105 59 263 59h34q222 0 335 -86q48 -36 70 -82.5t22 -95.5v-2h-213l-12 24q-21 39 -102 62q-43 12 -116 12q-127 0 -188 -64q-51 -54 -51 -139v-13q0 -39 13 -76.5t41 -66.5
q67 -70 192 -70q112 0 174 50q23 19 34 39q8 18 10 27h-202v133h429v-406h-164q-1 13 -9 53q-8 31 -16 50q-8 -10 -24 -26q-47 -47 -131 -73q-48 -15 -114 -15h-16zM611 945v-140h-199v140h199z" />
    <glyph glyph-name="gdotaccent" unicode="&#x121;" horiz-adv-x="846" 
d="M405 -206q-187 0 -267 67q-51 43 -51 115v4h207q5 -9 10 -15.5t16 -11.5q28 -16 96 -16h11q75 0 112 34q31 27 31 83v41q-14 -14 -27.5 -25t-35.5 -21q-64 -30 -150 -30h-14q-150 0 -225 89q-32 37 -47 83.5t-15 94.5v17q0 50 16 96.5t48 82.5q35 39 90 61.5t130 22.5h11
q89 0 150 -26q42 -18 68 -42v57h194v-493q0 -123 -69 -189q-81 -79 -255 -79h-34zM408 422q-81 0 -121 -42q-30 -33 -30 -85v-3q0 -50 31 -84q40 -43 120 -43h12q77 0 119 42q16 17 24 39t8 45v4q0 51 -34 86q-41 41 -118 41h-11zM505 757v-140h-199v140h199z" />
    <glyph glyph-name="uni0122" unicode="&#x122;" horiz-adv-x="1044" 
d="M490 -11q-155 0 -257 60q-91 51 -135 142q-39 77 -39 170v27q0 90 38 165q45 91 134 142q105 59 263 59h34q222 0 335 -86q48 -36 70 -82.5t22 -95.5v-2h-213l-12 24q-21 39 -102 62q-43 12 -116 12q-127 0 -188 -64q-51 -54 -51 -139v-13q0 -39 13 -76.5t41 -66.5
q67 -70 192 -70q112 0 174 50q23 19 34 39q8 18 10 27h-202v133h429v-406h-164q-1 13 -9 53q-8 31 -16 50q-8 -10 -24 -26q-47 -47 -131 -73q-48 -15 -114 -15h-16zM479 -280q22 44 29 84h-104v134h214v-111q0 -25 -9.5 -55.5t-20.5 -51.5h-109z" />
    <glyph glyph-name="uni0123" unicode="&#x123;" horiz-adv-x="846" 
d="M405 -206q-187 0 -267 67q-51 43 -51 115v4h207q5 -9 10 -15.5t16 -11.5q28 -16 96 -16h11q75 0 112 34q31 27 31 83v41q-14 -14 -27.5 -25t-35.5 -21q-64 -30 -150 -30h-14q-150 0 -225 89q-32 37 -47 83.5t-15 94.5v17q0 50 16 96.5t48 82.5q35 39 90 61.5t130 22.5h11
q89 0 150 -26q42 -18 68 -42v57h194v-493q0 -123 -69 -189q-81 -79 -255 -79h-34zM408 422q-81 0 -121 -42q-30 -33 -30 -85v-3q0 -50 31 -84q40 -43 120 -43h12q77 0 119 42q16 17 24 39t8 45v4q0 51 -34 86q-41 41 -118 41h-11zM437 835q-22 -44 -29 -84h104v-134h-214
v111q0 25 9.5 55.5t20.5 51.5h109z" />
    <glyph glyph-name="Hcircumflex" unicode="&#x124;" horiz-adv-x="1011" 
d="M92 0v744h206v-276h415v276h206v-744h-206v299h-415v-299h-206zM621 953l140 -150h-193l-63 63l-63 -63h-190l140 150h229z" />
    <glyph glyph-name="hcircumflex" unicode="&#x125;" horiz-adv-x="828" 
d="M83 757h195v-289q29 36 73 61q69 39 150 39h10q114 0 179 -67q28 -29 42.5 -66t14.5 -75v-360h-195v289q0 51 -30 87q-34 39 -103 39q-67 0 -105 -41q-18 -18 -27 -42.5t-9 -49.5v-282h-195v757zM459 969l137 -150h-195l-59 65l-59 -65h-191l136 150h231z" />
    <glyph glyph-name="Itilde" unicode="&#x128;" horiz-adv-x="390" 
d="M298 744v-744h-206v744h206zM109 800h-112v78q0 39 17 65q23 33 70 33h2q25 0 50.5 -8t73.5 -28q23 -11 36 -15q15 -5 21 -5q14 0 14 22v40h112v-78q0 -39 -17 -64q-22 -34 -70 -34h-2q-25 0 -50.5 8t-73.5 28q-23 11 -36 15q-15 5 -21 5q-14 0 -14 -22v-40z" />
    <glyph glyph-name="itilde" unicode="&#x129;" horiz-adv-x="361" 
d="M358 718q0 -39 -16 -64q-20 -34 -66 -34h-2q-25 0 -46.5 7.5t-58.5 27.5q-9 5 -16.5 9t-14.5 7q-12 5 -17 5q-14 0 -14 -22v-40h-109v79q0 38 16 65q21 33 66 33h2q25 0 46.5 -7.5t58.5 -27.5q9 -5 16.5 -9t14.5 -7q12 -5 17 -5q14 0 14 22v40h109v-79zM278 555v-555
h-195v555h195z" />
    <glyph glyph-name="Imacron" unicode="&#x12a;" horiz-adv-x="390" 
d="M298 744v-744h-206v744h206zM7 820v118h377v-118h-377z" />
    <glyph glyph-name="imacron" unicode="&#x12b;" horiz-adv-x="361" 
d="M12 630v118h337v-118h-337zM278 555v-555h-195v555h195z" />
    <glyph glyph-name="Ibreve" unicode="&#x12c;" horiz-adv-x="390" 
d="M298 744v-744h-206v744h206zM26 861q-19 23 -27.5 49t-8.5 50v3h146q2 -19 13 -32q14 -21 47 -21q31 0 45 21q10 13 12 32h145v-3q0 -22 -9.5 -48.5t-29.5 -50.5q-24 -28 -61 -44.5t-88 -16.5h-30q-106 0 -154 61z" />
    <glyph glyph-name="ibreve" unicode="&#x12d;" horiz-adv-x="361" 
d="M22 672q-35 43 -35 99v3h145q0 -17 10 -31q13 -22 42 -22q26 0 41 22q9 14 9 31h143v-3q0 -23 -9 -49t-29 -50q-50 -61 -146 -61h-20q-103 0 -151 61zM278 555v-555h-195v555h195z" />
    <glyph glyph-name="Iogonek" unicode="&#x12e;" horiz-adv-x="390" 
d="M298 744v-744h-206v744h206zM167 -193q-131 0 -131 76v2q0 39 44 65t133 50h85q-40 -26 -53 -37q-19 -16 -19 -33q0 -25 38 -25h45v-98h-142z" />
    <glyph glyph-name="iogonek" unicode="&#x12f;" horiz-adv-x="361" 
d="M280 757v-140h-199v140h199zM278 555v-555h-195v555h195zM147 -193q-131 0 -131 76v2q0 39 44 65t133 50h85q-40 -26 -53 -37q-19 -16 -19 -33q0 -25 38 -25h45v-98h-142z" />
    <glyph glyph-name="Idotaccent" unicode="&#x130;" horiz-adv-x="390" 
d="M298 744v-744h-206v744h206zM295 945v-140h-199v140h199z" />
    <glyph glyph-name="dotlessi" unicode="&#x131;" horiz-adv-x="361" 
d="M278 555v-555h-195v555h195z" />
    <glyph glyph-name="uni0136" unicode="&#x136;" horiz-adv-x="923" 
d="M298 0h-206v744h206v-306l348 306h262l-392 -341l409 -403h-269l-358 350v-350zM439 -280q22 44 29 84h-104v134h214v-111q0 -25 -9.5 -55.5t-20.5 -51.5h-109z" />
    <glyph glyph-name="uni0137" unicode="&#x137;" horiz-adv-x="726" 
d="M278 0h-195v757h195v-424l198 222h225l-232 -249l257 -306h-232l-216 257v-257zM352 -280q22 44 29 84h-104v134h214v-111q0 -25 -9.5 -55.5t-20.5 -51.5h-109z" />
    <glyph glyph-name="Lacute" unicode="&#x139;" horiz-adv-x="802" 
d="M92 744h206v-569h455v-175h-661v744zM298 805h-207l91 148h222z" />
    <glyph glyph-name="lacute" unicode="&#x13a;" horiz-adv-x="361" 
d="M278 757v-757h-195v757h195zM83 819l88 149h218l-111 -149h-195z" />
    <glyph glyph-name="uni013B" unicode="&#x13b;" horiz-adv-x="802" 
d="M92 744h206v-569h455v-175h-661v744zM390 -280q22 44 29 84h-104v134h214v-111q0 -25 -9.5 -55.5t-20.5 -51.5h-109z" />
    <glyph glyph-name="uni013C" unicode="&#x13c;" horiz-adv-x="361" 
d="M278 757v-757h-195v757h195zM150 -280q22 44 29 84h-104v134h214v-111q0 -25 -9.5 -55.5t-20.5 -51.5h-109z" />
    <glyph glyph-name="Nacute" unicode="&#x143;" horiz-adv-x="1031" 
d="M737 0l-444 482v-482h-201v744h212l435 -479v479h200v-744h-202zM618 805h-207l91 148h222z" />
    <glyph glyph-name="nacute" unicode="&#x144;" horiz-adv-x="828" 
d="M83 555h193v-88q29 37 74 62q69 39 151 39h10q114 0 179 -67q28 -29 42.5 -66t14.5 -75v-360h-195v289q0 51 -30 87q-34 39 -103 39q-67 0 -105 -41q-18 -18 -27 -42.5t-9 -49.5v-282h-195v555zM308 617l88 149h218l-111 -149h-195z" />
    <glyph glyph-name="uni0145" unicode="&#x145;" horiz-adv-x="1031" 
d="M737 0l-444 482v-482h-201v744h212l435 -479v479h200v-744h-202zM483 -280q22 44 29 84h-104v134h214v-111q0 -25 -9.5 -55.5t-20.5 -51.5h-109z" />
    <glyph glyph-name="uni0146" unicode="&#x146;" horiz-adv-x="828" 
d="M83 555h193v-88q29 37 74 62q69 39 151 39h10q114 0 179 -67q28 -29 42.5 -66t14.5 -75v-360h-195v289q0 51 -30 87q-34 39 -103 39q-67 0 -105 -41q-18 -18 -27 -42.5t-9 -49.5v-282h-195v555zM384 -280q22 44 29 84h-104v134h214v-111q0 -25 -9.5 -55.5t-20.5 -51.5
h-109z" />
    <glyph glyph-name="Ncaron" unicode="&#x147;" horiz-adv-x="1031" 
d="M737 0l-444 482v-482h-201v744h212l435 -479v479h200v-744h-202zM404 805l-140 148h194l63 -64l63 64h191l-140 -148h-231z" />
    <glyph glyph-name="ncaron" unicode="&#x148;" horiz-adv-x="828" 
d="M83 555h193v-88q29 37 74 62q69 39 151 39h10q114 0 179 -67q28 -29 42.5 -66t14.5 -75v-360h-195v289q0 51 -30 87q-34 39 -103 39q-67 0 -105 -41q-18 -18 -27 -42.5t-9 -49.5v-282h-195v555zM300 617l-137 149h195l59 -64l59 64h191l-136 -149h-231z" />
    <glyph glyph-name="Omacron" unicode="&#x14c;" horiz-adv-x="1056" 
d="M550 756q124 0 212 -32.5t142 -89.5q48 -51 70.5 -115t22.5 -130v-30q0 -65 -22.5 -129.5t-70.5 -115.5q-55 -59 -143 -92.5t-211 -33.5h-44q-161 0 -270 61q-95 53 -138 143q-39 77 -39 167v30q0 90 39 167q44 90 138 141q108 59 270 59h44zM783 381q0 84 -49 137
q-63 68 -206 68q-140 0 -205 -68q-50 -53 -50 -137v-14q0 -37 12 -73t39 -64q66 -71 204 -71q142 0 206 71q49 53 49 137v14zM340 820v118h377v-118h-377z" />
    <glyph glyph-name="omacron" unicode="&#x14d;" horiz-adv-x="827" 
d="M398 -15q-105 0 -175 28t-109 76q-33 40 -47 86.5t-14 92.5v14q0 61 23 119q29 73 100 117q86 52 221 52h33q140 0 226 -52q69 -43 98 -117q20 -54 20 -118v-16q0 -64 -20 -117q-29 -72 -98 -114q-86 -51 -227 -51h-31zM419 131q83 0 123 52q31 40 31 97q0 58 -31 97
q-40 50 -123 50h-11q-85 0 -125 -50q-29 -37 -29 -97q0 -59 29 -97q40 -52 125 -52h11zM231 630v118h366v-118h-366z" />
    <glyph glyph-name="Obreve" unicode="&#x14e;" horiz-adv-x="1056" 
d="M550 756q124 0 212 -32.5t142 -89.5q48 -51 70.5 -115t22.5 -130v-30q0 -65 -22.5 -129.5t-70.5 -115.5q-55 -59 -143 -92.5t-211 -33.5h-44q-161 0 -270 61q-95 53 -138 143q-39 77 -39 167v30q0 90 39 167q44 90 138 141q108 59 270 59h44zM783 381q0 84 -49 137
q-63 68 -206 68q-140 0 -205 -68q-50 -53 -50 -137v-14q0 -37 12 -73t39 -64q66 -71 204 -71q142 0 206 71q49 53 49 137v14zM359 861q-19 23 -27.5 49t-8.5 50v3h146q2 -19 13 -32q14 -21 47 -21q31 0 45 21q10 13 12 32h145v-3q0 -22 -9.5 -48.5t-29.5 -50.5
q-24 -28 -61 -44.5t-88 -16.5h-30q-106 0 -154 61z" />
    <glyph glyph-name="obreve" unicode="&#x14f;" horiz-adv-x="827" 
d="M398 -15q-105 0 -175 28t-109 76q-33 40 -47 86.5t-14 92.5v14q0 61 23 119q29 73 100 117q86 52 221 52h33q140 0 226 -52q69 -43 98 -117q20 -54 20 -118v-16q0 -64 -20 -117q-29 -72 -98 -114q-86 -51 -227 -51h-31zM419 131q83 0 123 52q31 40 31 97q0 58 -31 97
q-40 50 -123 50h-11q-85 0 -125 -50q-29 -37 -29 -97q0 -59 29 -97q40 -52 125 -52h11zM246 673q-34 43 -34 99v3h147q0 -17 10 -31q13 -22 46 -22q30 0 45 22q9 14 9 31h145v-3q0 -23 -9 -49t-29 -50q-50 -61 -147 -61h-30q-105 0 -153 61z" />
    <glyph glyph-name="Ohungarumlaut" unicode="&#x150;" horiz-adv-x="1056" 
d="M550 756q124 0 212 -32.5t142 -89.5q48 -51 70.5 -115t22.5 -130v-30q0 -65 -22.5 -129.5t-70.5 -115.5q-55 -59 -143 -92.5t-211 -33.5h-44q-161 0 -270 61q-95 53 -138 143q-39 77 -39 167v30q0 90 39 167q44 90 138 141q108 59 270 59h44zM783 381q0 84 -49 137
q-63 68 -206 68q-140 0 -205 -68q-50 -53 -50 -137v-14q0 -37 12 -73t39 -64q66 -71 204 -71q142 0 206 71q49 53 49 137v14zM322 805l62 148h183l-64 -148h-181zM566 805l67 148h185l-72 -148h-180z" />
    <glyph glyph-name="ohungarumlaut" unicode="&#x151;" horiz-adv-x="827" 
d="M398 -15q-105 0 -175 28t-109 76q-33 40 -47 86.5t-14 92.5v14q0 61 23 119q29 73 100 117q86 52 221 52h33q140 0 226 -52q69 -43 98 -117q20 -54 20 -118v-16q0 -64 -20 -117q-29 -72 -98 -114q-86 -51 -227 -51h-31zM419 131q83 0 123 52q31 40 31 97q0 58 -31 97
q-40 50 -123 50h-11q-85 0 -125 -50q-29 -37 -29 -97q0 -59 29 -97q40 -52 125 -52h11zM203 617l62 149h182l-64 -149h-180zM444 617l65 149h183l-70 -149h-178z" />
    <glyph glyph-name="Racute" unicode="&#x154;" horiz-adv-x="981" 
d="M871 292.5q42 -47.5 42 -127.5v-77q0 -43 4 -58q3 -14 8 -25v-5h-213q-3 10 -4 16q-3 11 -3 36v61q0 74 -31.5 107t-107.5 33h-268v-253h-206v744h501q188 0 264 -69q51 -47 51 -130v-10q0 -68 -42.5 -114.5t-114.5 -62.5q78 -18 120 -65.5zM298 422h287q58 0 85 24
q22 19 22 55v2q0 36 -22 55q-25 22 -85 22h-287v-158zM584 805h-207l91 148h222z" />
    <glyph glyph-name="racute" unicode="&#x155;" horiz-adv-x="697" 
d="M83 0v555h193v-91q20 37 53 62q54 41 128 41h6q93 0 144 -59q45 -54 45 -156v-31q0 -20 -1 -32h-201v8q0 60 -17.5 89t-61.5 29q-45 0 -69 -32.5t-24 -87.5v-295h-195zM269 617l88 149h218l-111 -149h-195z" />
    <glyph glyph-name="uni0156" unicode="&#x156;" horiz-adv-x="981" 
d="M871 292.5q42 -47.5 42 -127.5v-77q0 -43 4 -58q3 -14 8 -25v-5h-213q-3 10 -4 16q-3 11 -3 36v61q0 74 -31.5 107t-107.5 33h-268v-253h-206v744h501q188 0 264 -69q51 -47 51 -130v-10q0 -68 -42.5 -114.5t-114.5 -62.5q78 -18 120 -65.5zM298 422h287q58 0 85 24
q22 19 22 55v2q0 36 -22 55q-25 22 -85 22h-287v-158zM464 -280q22 44 29 84h-104v134h214v-111q0 -25 -9.5 -55.5t-20.5 -51.5h-109z" />
    <glyph glyph-name="uni0157" unicode="&#x157;" horiz-adv-x="697" 
d="M83 0v555h193v-91q20 37 53 62q54 41 128 41h6q93 0 144 -59q45 -54 45 -156v-31q0 -20 -1 -32h-201v8q0 60 -17.5 89t-61.5 29q-45 0 -69 -32.5t-24 -87.5v-295h-195zM149 -280q22 44 29 84h-104v134h214v-111q0 -25 -9.5 -55.5t-20.5 -51.5h-109z" />
    <glyph glyph-name="Rcaron" unicode="&#x158;" horiz-adv-x="981" 
d="M871 292.5q42 -47.5 42 -127.5v-77q0 -43 4 -58q3 -14 8 -25v-5h-213q-3 10 -4 16q-3 11 -3 36v61q0 74 -31.5 107t-107.5 33h-268v-253h-206v744h501q188 0 264 -69q51 -47 51 -130v-10q0 -68 -42.5 -114.5t-114.5 -62.5q78 -18 120 -65.5zM298 422h287q58 0 85 24
q22 19 22 55v2q0 36 -22 55q-25 22 -85 22h-287v-158zM365 805l-140 148h194l63 -64l63 64h191l-140 -148h-231z" />
    <glyph glyph-name="rcaron" unicode="&#x159;" horiz-adv-x="697" 
d="M83 0v555h193v-91q20 37 53 62q54 41 128 41h6q93 0 144 -59q45 -54 45 -156v-31q0 -20 -1 -32h-201v8q0 60 -17.5 89t-61.5 29q-45 0 -69 -32.5t-24 -87.5v-295h-195zM246 617l-137 149h195l59 -64l59 64h191l-136 -149h-231z" />
    <glyph glyph-name="Sacute" unicode="&#x15a;" horiz-adv-x="925" 
d="M451 -13q-163 0 -256 44q-77 37 -110 100q-23 44 -23 103v11h224q2 -40 30 -66q41 -41 145 -41h7q103 0 146 29q29 19 29 60q0 37 -30 54q-36 19 -122 23l-99 3q-171 6 -252 70q-70 55 -70 147v9q0 101 70 154q89 66 300 66h34q220 0 311 -72q63 -51 63 -146v-11h-221
q-3 16 -9.5 29.5t-21.5 24.5q-42 28 -136 28h-10q-94 0 -131 -17q-32 -16 -32 -49q0 -32 28 -48q33 -19 116 -23l103 -4q187 -7 264 -67q65 -50 65 -151v-12q0 -106 -66 -165q-93 -83 -317 -83h-29zM561 805h-207l91 148h222z" />
    <glyph glyph-name="sacute" unicode="&#x15b;" horiz-adv-x="737" 
d="M350 -13q-178 0 -251 71q-46 45 -46 106v5h209q3 -23 20 -36q27 -23 91 -23h2q59 0 86 17q21 13 21 36q0 12 -3.5 20.5t-14.5 14.5q-23 14 -88 18l-76 6q-125 7 -189 53q-55 39 -55 113v6q0 80 56 123q69 51 231 51h27q178 0 252 -58q29 -22 39 -50.5t10 -61.5v-3h-204
q-1 2 -4.5 13t-16.5 22q-26 19 -85 19h-3q-63 0 -84 -12q-22 -13 -22 -34q0 -22 20 -36q21 -15 80 -16l76 -3q140 -6 203 -50q28 -20 40 -48.5t12 -65.5v-7q0 -40 -11.5 -72.5t-41.5 -57.5q-73 -60 -254 -60h-26zM263 617l88 149h218l-111 -149h-195z" />
    <glyph glyph-name="Scircumflex" unicode="&#x15c;" horiz-adv-x="925" 
d="M451 -13q-163 0 -256 44q-77 37 -110 100q-23 44 -23 103v11h224q2 -40 30 -66q41 -41 145 -41h7q103 0 146 29q29 19 29 60q0 37 -30 54q-36 19 -122 23l-99 3q-171 6 -252 70q-70 55 -70 147v9q0 101 70 154q89 66 300 66h34q220 0 311 -72q63 -51 63 -146v-11h-221
q-3 16 -9.5 29.5t-21.5 24.5q-42 28 -136 28h-10q-94 0 -131 -17q-32 -16 -32 -49q0 -32 28 -48q33 -19 116 -23l103 -4q187 -7 264 -67q65 -50 65 -151v-12q0 -106 -66 -165q-93 -83 -317 -83h-29zM574 953l140 -150h-193l-63 63l-63 -63h-190l140 150h229z" />
    <glyph glyph-name="scircumflex" unicode="&#x15d;" horiz-adv-x="737" 
d="M350 -13q-178 0 -251 71q-46 45 -46 106v5h209q3 -23 20 -36q27 -23 91 -23h2q59 0 86 17q21 13 21 36q0 12 -3.5 20.5t-14.5 14.5q-23 14 -88 18l-76 6q-125 7 -189 53q-55 39 -55 113v6q0 80 56 123q69 51 231 51h27q178 0 252 -58q29 -22 39 -50.5t10 -61.5v-3h-204
q-1 2 -4.5 13t-16.5 22q-26 19 -85 19h-3q-63 0 -84 -12q-22 -13 -22 -34q0 -22 20 -36q21 -15 80 -16l76 -3q140 -6 203 -50q28 -20 40 -48.5t12 -65.5v-7q0 -40 -11.5 -72.5t-41.5 -57.5q-73 -60 -254 -60h-26zM478 766l137 -150h-195l-59 65l-59 -65h-191l136 150h231z
" />
    <glyph glyph-name="Scedilla" unicode="&#x15e;" horiz-adv-x="925" 
d="M589 -226q-37 -32 -127 -32h-145v90h109q20 0 27.5 5.5t7.5 16.5q0 23 -35 23h-80v116q-117 13 -185 58q-58 37 -81 92q-18 41 -18 91v11h224q2 -40 30 -66q41 -41 145 -41h7q103 0 146 29q29 19 29 60q0 37 -30 54q-36 19 -122 23l-99 3q-171 6 -252 70q-70 55 -70 147
v9q0 101 70 154q89 66 300 66h34q220 0 311 -72q63 -51 63 -146v-11h-221q-3 16 -9.5 29.5t-21.5 24.5q-42 28 -136 28h-10q-94 0 -131 -17q-32 -16 -32 -49q0 -32 28 -48q33 -19 116 -23l103 -4q187 -7 264 -67q65 -50 65 -151v-12q0 -106 -66 -165q-93 -83 -317 -83h-23
v-37h5q90 0 127 -27q30 -22 30 -74v-3q0 -47 -30 -72z" />
    <glyph glyph-name="scedilla" unicode="&#x15f;" horiz-adv-x="737" 
d="M492 -226q-37 -32 -127 -32h-145v90h109q20 0 27.5 5.5t7.5 16.5q0 23 -35 23h-80v117q-114 17 -165 81q-31 39 -31 89v5h209q3 -23 20 -36q27 -23 91 -23h2q59 0 86 17q21 13 21 36q0 12 -3.5 20.5t-14.5 14.5q-23 14 -88 18l-76 6q-125 7 -189 53q-55 39 -55 113v6
q0 80 56 123q69 51 231 51h27q178 0 252 -58q29 -22 39 -50.5t10 -61.5v-3h-204q-1 2 -4.5 13t-16.5 22q-26 19 -85 19h-3q-63 0 -84 -12q-22 -13 -22 -34q0 -22 20 -36q21 -15 80 -16l76 -3q140 -6 203 -50q28 -20 40 -48.5t12 -65.5v-7q0 -40 -11.5 -72.5t-41.5 -57.5
q-73 -60 -254 -60h-16v-37h5q90 0 127 -27q30 -22 30 -74v-3q0 -47 -30 -72z" />
    <glyph glyph-name="Scaron" unicode="&#x160;" horiz-adv-x="925" 
d="M451 -13q-163 0 -256 44q-77 37 -110 100q-23 44 -23 103v11h224q2 -40 30 -66q41 -41 145 -41h7q103 0 146 29q29 19 29 60q0 37 -30 54q-36 19 -122 23l-99 3q-171 6 -252 70q-70 55 -70 147v9q0 101 70 154q89 66 300 66h34q220 0 311 -72q63 -51 63 -146v-11h-221
q-3 16 -9.5 29.5t-21.5 24.5q-42 28 -136 28h-10q-94 0 -131 -17q-32 -16 -32 -49q0 -32 28 -48q33 -19 116 -23l103 -4q187 -7 264 -67q65 -50 65 -151v-12q0 -106 -66 -165q-93 -83 -317 -83h-29zM342 805l-140 148h194l63 -64l63 64h191l-140 -148h-231z" />
    <glyph glyph-name="scaron" unicode="&#x161;" horiz-adv-x="737" 
d="M350 -13q-178 0 -251 71q-46 45 -46 106v5h209q3 -23 20 -36q27 -23 91 -23h2q59 0 86 17q21 13 21 36q0 12 -3.5 20.5t-14.5 14.5q-23 14 -88 18l-76 6q-125 7 -189 53q-55 39 -55 113v6q0 80 56 123q69 51 231 51h27q178 0 252 -58q29 -22 39 -50.5t10 -61.5v-3h-204
q-1 2 -4.5 13t-16.5 22q-26 19 -85 19h-3q-63 0 -84 -12q-22 -13 -22 -34q0 -22 20 -36q21 -15 80 -16l76 -3q140 -6 203 -50q28 -20 40 -48.5t12 -65.5v-7q0 -40 -11.5 -72.5t-41.5 -57.5q-73 -60 -254 -60h-26zM245 617l-137 149h195l59 -64l59 64h191l-136 -149h-231z
" />
    <glyph glyph-name="uni0162" unicode="&#x162;" horiz-adv-x="873" 
d="M334 0v574h-288v170h781v-170h-288v-574h-205zM404 -280q22 44 29 84h-104v134h214v-111q0 -25 -9.5 -55.5t-20.5 -51.5h-109z" />
    <glyph glyph-name="uni0163" unicode="&#x163;" horiz-adv-x="534" 
d="M480 0h-177q-69 0 -106.5 38t-37.5 112v265h-121v140h121v169h194v-169h127v-140h-127v-204q0 -34 12 -48t46 -14h69v-149zM306 -280q22 44 29 84h-104v134h214v-111q0 -25 -9.5 -55.5t-20.5 -51.5h-109z" />
    <glyph glyph-name="Utilde" unicode="&#x168;" horiz-adv-x="1014" 
d="M226 54q-81 53 -114 149q-25 69 -25 163v378h206v-373q0 -87 36 -135q53 -72 177 -72h5q126 0 177 72q34 49 34 135v373h205v-378q0 -91 -26 -164q-36 -95 -117 -148q-97 -65 -261 -65h-29q-170 0 -268 65zM422 800h-112v78q0 39 17 65q23 33 70 33h2q25 0 50.5 -8
t73.5 -28q23 -11 36 -15q15 -5 21 -5q14 0 14 22v40h112v-78q0 -39 -17 -64q-22 -34 -70 -34h-2q-25 0 -50.5 8t-73.5 28q-23 11 -36 15q-15 5 -21 5q-14 0 -14 -22v-40z" />
    <glyph glyph-name="utilde" unicode="&#x169;" horiz-adv-x="822" 
d="M739 0h-193v88q-10 -14 -29 -31t-44 -31q-69 -39 -150 -39h-9q-112 0 -176 67q-28 29 -42.5 66t-14.5 75v360h195v-289q0 -54 30 -87q33 -38 100 -38q65 0 103 41q35 37 35 91v282h195v-555zM597 718q0 -39 -16 -64q-22 -34 -70 -34h-2q-26 0 -49 7.5t-61 27.5l-32 16
q-12 5 -18 5q-14 0 -14 -22v-40h-112v79q0 39 17 65q21 33 69 33h2q26 0 49 -7.5t61 -27.5l32 -16q12 -5 18 -5q14 0 14 22v40h112v-79z" />
    <glyph glyph-name="Umacron" unicode="&#x16a;" horiz-adv-x="1014" 
d="M226 54q-81 53 -114 149q-25 69 -25 163v378h206v-373q0 -87 36 -135q53 -72 177 -72h5q126 0 177 72q34 49 34 135v373h205v-378q0 -91 -26 -164q-36 -95 -117 -148q-97 -65 -261 -65h-29q-170 0 -268 65zM320 820v118h377v-118h-377z" />
    <glyph glyph-name="umacron" unicode="&#x16b;" horiz-adv-x="822" 
d="M739 0h-193v88q-10 -14 -29 -31t-44 -31q-69 -39 -150 -39h-9q-112 0 -176 67q-28 29 -42.5 66t-14.5 75v360h195v-289q0 -54 30 -87q33 -38 100 -38q65 0 103 41q35 37 35 91v282h195v-555zM227 630v118h366v-118h-366z" />
    <glyph glyph-name="Ubreve" unicode="&#x16c;" horiz-adv-x="1014" 
d="M226 54q-81 53 -114 149q-25 69 -25 163v378h206v-373q0 -87 36 -135q53 -72 177 -72h5q126 0 177 72q34 49 34 135v373h205v-378q0 -91 -26 -164q-36 -95 -117 -148q-97 -65 -261 -65h-29q-170 0 -268 65zM339 861q-19 23 -27.5 49t-8.5 50v3h146q2 -19 13 -32
q14 -21 47 -21q31 0 45 21q10 13 12 32h145v-3q0 -22 -9.5 -48.5t-29.5 -50.5q-24 -28 -61 -44.5t-88 -16.5h-30q-106 0 -154 61z" />
    <glyph glyph-name="ubreve" unicode="&#x16d;" horiz-adv-x="822" 
d="M739 0h-193v88q-10 -14 -29 -31t-44 -31q-69 -39 -150 -39h-9q-112 0 -176 67q-28 29 -42.5 66t-14.5 75v360h195v-289q0 -54 30 -87q33 -38 100 -38q65 0 103 41q35 37 35 91v282h195v-555zM242 673q-34 43 -34 99v3h147q0 -17 10 -31q13 -22 46 -22q30 0 45 22
q9 14 9 31h145v-3q0 -23 -9 -49t-29 -50q-50 -61 -147 -61h-30q-105 0 -153 61z" />
    <glyph glyph-name="Uring" unicode="&#x16e;" horiz-adv-x="1014" 
d="M226 54q-81 53 -114 149q-25 69 -25 163v378h206v-373q0 -87 36 -135q53 -72 177 -72h5q126 0 177 72q34 49 34 135v373h205v-378q0 -91 -26 -164q-36 -95 -117 -148q-97 -65 -261 -65h-29q-170 0 -268 65zM376 994q45 38 131 38q87 0 132 -38q37 -33 37 -92
q0 -57 -36 -90q-43 -40 -133 -40q-88 0 -131 40q-37 34 -37 90q0 59 37 92zM558 942q-17 15 -51 15t-50.5 -15t-16.5 -40q0 -24 17 -40t50 -16t50.5 16t17.5 40q0 25 -17 40z" />
    <glyph glyph-name="uring" unicode="&#x16f;" horiz-adv-x="822" 
d="M739 0h-193v88q-10 -14 -29 -31t-44 -31q-69 -39 -150 -39h-9q-112 0 -176 67q-28 29 -42.5 66t-14.5 75v360h195v-289q0 -54 30 -87q33 -38 100 -38q65 0 103 41q35 37 35 91v282h195v-555zM279 832q45 38 131 38q87 0 132 -38q37 -33 37 -91t-36 -91q-42 -39 -133 -39
q-89 0 -131 39q-37 34 -37 91q0 58 37 91zM360 701q17 -16 50 -16t50.5 16t17.5 40t-17 39t-51 15t-50.5 -14.5t-16.5 -39.5q0 -24 17 -40z" />
    <glyph glyph-name="Uhungarumlaut" unicode="&#x170;" horiz-adv-x="1014" 
d="M226 54q-81 53 -114 149q-25 69 -25 163v378h206v-373q0 -87 36 -135q53 -72 177 -72h5q126 0 177 72q34 49 34 135v373h205v-378q0 -91 -26 -164q-36 -95 -117 -148q-97 -65 -261 -65h-29q-170 0 -268 65zM295 805l62 148h183l-64 -148h-181zM539 805l67 148h185
l-72 -148h-180z" />
    <glyph glyph-name="uhungarumlaut" unicode="&#x171;" horiz-adv-x="822" 
d="M739 0h-193v88q-10 -14 -29 -31t-44 -31q-69 -39 -150 -39h-9q-112 0 -176 67q-28 29 -42.5 66t-14.5 75v360h195v-289q0 -54 30 -87q33 -38 100 -38q65 0 103 41q35 37 35 91v282h195v-555zM200 617l62 149h182l-64 -149h-180zM441 617l65 149h183l-70 -149h-178z" />
    <glyph glyph-name="Uogonek" unicode="&#x172;" horiz-adv-x="1014" 
d="M583 -193q-131 0 -131 76v2q0 35 35.5 60t107.5 48q-31 -4 -72 -4h-29q-170 0 -268 65q-81 53 -114 149q-25 69 -25 163v378h206v-373q0 -87 36 -135q53 -72 177 -72h5q126 0 177 72q34 49 34 135v373h205v-378q0 -118 -43 -201t-138 -143q-58 -36 -80 -55
q-13 -11 -18.5 -19t-5.5 -17q0 -26 38 -26h45v-98h-142z" />
    <glyph glyph-name="uogonek" unicode="&#x173;" horiz-adv-x="822" 
d="M750 -95v-98h-142q-131 0 -131 76v2q0 39 44 65t133 50h-108v88q-10 -14 -29 -31t-44 -31q-69 -39 -150 -39h-9q-112 0 -176 67q-28 29 -42.5 66t-14.5 75v360h195v-289q0 -54 30 -87q33 -38 100 -38q65 0 103 41q35 37 35 91v282h195v-555q-40 -26 -53 -37
q-19 -16 -19 -33q0 -25 38 -25h45z" />
    <glyph glyph-name="Wcircumflex" unicode="&#x174;" horiz-adv-x="1340" 
d="M513 0h-239l-256 744h221l164 -535l156 535h240l157 -537l163 537h203l-247 -744h-246l-158 521zM795 953l140 -150h-193l-63 63l-63 -63h-190l140 150h229z" />
    <glyph glyph-name="wcircumflex" unicode="&#x175;" horiz-adv-x="1152" 
d="M466 0h-227l-217 555h207l133 -385l115 385h220l124 -385l123 385h185l-196 -555h-229l-122 360zM702 766l137 -150h-195l-59 65l-59 -65h-191l136 150h231z" />
    <glyph glyph-name="Ycircumflex" unicode="&#x176;" horiz-adv-x="927" 
d="M367 0v272l-369 472h255l223 -295l223 295h230l-356 -473v-271h-206zM592 953l140 -150h-193l-63 63l-63 -63h-190l140 150h229z" />
    <glyph glyph-name="ycircumflex" unicode="&#x177;" horiz-adv-x="753" 
d="M123 -52h122q29 0 29 23v1q0 9 -3 20l-15 34l-238 529h214l154 -398l153 398h196l-254 -611q-30 -71 -71 -103t-108 -32h-179v139zM503 766l137 -150h-195l-59 65l-59 -65h-191l136 150h231z" />
    <glyph glyph-name="Ydieresis" unicode="&#x178;" horiz-adv-x="927" 
d="M367 0v272l-369 472h255l223 -295l223 295h230l-356 -473v-271h-206zM445 945v-140h-194v140h194zM701 945v-140h-194v140h194z" />
    <glyph glyph-name="Zacute" unicode="&#x179;" horiz-adv-x="908" 
d="M835 0h-761v143l456 433h-453v168h754v-143l-475 -431h479v-170zM557 805h-207l91 148h222z" />
    <glyph glyph-name="zacute" unicode="&#x17a;" horiz-adv-x="738" 
d="M680 0h-621v134l344 275h-342v146h606v-131l-354 -272h367v-152zM267 617l88 149h218l-111 -149h-195z" />
    <glyph glyph-name="Zdotaccent" unicode="&#x17b;" horiz-adv-x="908" 
d="M835 0h-761v143l456 433h-453v168h754v-143l-475 -431h479v-170zM554 945v-140h-199v140h199z" />
    <glyph glyph-name="zdotaccent" unicode="&#x17c;" horiz-adv-x="738" 
d="M680 0h-621v134l344 275h-342v146h606v-131l-354 -272h367v-152zM464 757v-140h-199v140h199z" />
    <glyph glyph-name="Zcaron" unicode="&#x17d;" horiz-adv-x="908" 
d="M835 0h-761v143l456 433h-453v168h754v-143l-475 -431h479v-170zM338 805l-140 148h194l63 -64l63 64h191l-140 -148h-231z" />
    <glyph glyph-name="zcaron" unicode="&#x17e;" horiz-adv-x="738" 
d="M680 0h-621v134l344 275h-342v146h606v-131l-354 -272h367v-152zM249 617l-137 149h195l59 -64l59 64h191l-136 -149h-231z" />
    <glyph glyph-name="Aringacute" unicode="&#x1fa;" horiz-adv-x="973" 
d="M741 0l-61 138h-402l-60 -138h-207l330 744h276l345 -744h-221zM611 291l-135 303l-131 -303h266zM348 1018q45 38 131 38q87 0 132 -38q37 -33 37 -92q0 -57 -36 -90q-43 -40 -133 -40q-88 0 -131 40q-37 34 -37 90q0 59 37 92zM530 966q-17 15 -51 15t-50.5 -15
t-16.5 -40q0 -24 17 -40t50 -16t50.5 16t17.5 40q0 25 -17 40zM582 1091h-207l91 148h222z" />
    <glyph glyph-name="aringacute" unicode="&#x1fb;" horiz-adv-x="783" 
d="M435 22q-59 -33 -147 -33h-16q-110 0 -167 54q-26 23 -39 55t-13 67v4q0 76 54 116q61 44 195 55l152 13q23 2 32.5 10.5t9.5 25.5q0 26 -17 37q-27 17 -99 17q-66 0 -94 -22q-18 -16 -18 -39h-200v2q0 68 45 113q73 71 250 71h31q179 0 249 -66q26 -25 34.5 -55t8.5 -66
v-183q0 -28 9 -38.5t37 -10.5h21v-149h-158q-40 0 -65 25q-22 22 -28 52q-25 -32 -67 -55zM462 153q17 16 25.5 35.5t8.5 36.5v43q-25 -10 -122 -26q-73 -12 -97 -25q-27 -13 -27 -43v-2q0 -28 22.5 -44.5t70.5 -16.5q77 0 119 42zM249 832q45 38 131 38q87 0 132 -38
q37 -33 37 -91t-36 -91q-42 -39 -133 -39q-89 0 -131 39q-37 34 -37 91q0 58 37 91zM330 701q17 -16 50 -16t50.5 16t17.5 40t-17 39t-51 15t-50.5 -14.5t-16.5 -39.5q0 -24 17 -40zM282 905l88 149h218l-111 -149h-195z" />
    <glyph glyph-name="uni0218" unicode="&#x218;" horiz-adv-x="925" 
d="M451 -13q-163 0 -256 44q-77 37 -110 100q-23 44 -23 103v11h224q2 -40 30 -66q41 -41 145 -41h7q103 0 146 29q29 19 29 60q0 37 -30 54q-36 19 -122 23l-99 3q-171 6 -252 70q-70 55 -70 147v9q0 101 70 154q89 66 300 66h34q220 0 311 -72q63 -51 63 -146v-11h-221
q-3 16 -9.5 29.5t-21.5 24.5q-42 28 -136 28h-10q-94 0 -131 -17q-32 -16 -32 -49q0 -32 28 -48q33 -19 116 -23l103 -4q187 -7 264 -67q65 -50 65 -151v-12q0 -106 -66 -165q-93 -83 -317 -83h-29zM435 -280q22 44 29 84h-104v134h214v-111q0 -25 -9.5 -55.5t-20.5 -51.5
h-109z" />
    <glyph glyph-name="uni0219" unicode="&#x219;" horiz-adv-x="737" 
d="M350 -13q-178 0 -251 71q-46 45 -46 106v5h209q3 -23 20 -36q27 -23 91 -23h2q59 0 86 17q21 13 21 36q0 12 -3.5 20.5t-14.5 14.5q-23 14 -88 18l-76 6q-125 7 -189 53q-55 39 -55 113v6q0 80 56 123q69 51 231 51h27q178 0 252 -58q29 -22 39 -50.5t10 -61.5v-3h-204
q-1 2 -4.5 13t-16.5 22q-26 19 -85 19h-3q-63 0 -84 -12q-22 -13 -22 -34q0 -22 20 -36q21 -15 80 -16l76 -3q140 -6 203 -50q28 -20 40 -48.5t12 -65.5v-7q0 -40 -11.5 -72.5t-41.5 -57.5q-73 -60 -254 -60h-26zM336 -280q22 44 29 84h-104v134h214v-111q0 -25 -9.5 -55.5
t-20.5 -51.5h-109z" />
    <glyph glyph-name="uni0401" unicode="&#x401;" horiz-adv-x="852" 
d="M92 744h681v-162h-478v-121h463v-168h-463v-129h484v-164h-687v744zM403 945v-140h-194v140h194zM659 945v-140h-194v140h194z" />
    <glyph glyph-name="uni0403" unicode="&#x403;" horiz-adv-x="737" 
d="M92 0v744h620v-164h-414v-580h-206zM497 805h-207l91 148h222z" />
    <glyph glyph-name="uni040E" unicode="&#x40e;" horiz-adv-x="922" 
d="M593 165q-26 -44 -50.5 -74t-53.5 -49q-61 -42 -170 -42h-128v174h129q18 0 18 13v1q0 8 -2.5 14.5t-11.5 19.5l-326 522h239l241 -400l219 400h227zM304 861q-19 23 -27.5 49t-8.5 50v3h146q2 -19 13 -32q14 -21 47 -21q31 0 45 21q10 13 12 32h145v-3q0 -22 -9.5 -48.5
t-29.5 -50.5q-24 -28 -61 -44.5t-88 -16.5h-30q-106 0 -154 61z" />
    <glyph glyph-name="uni0410" unicode="&#x410;" horiz-adv-x="973" 
d="M741 0l-61 138h-402l-60 -138h-207l330 744h276l345 -744h-221zM611 291l-135 303l-131 -303h266z" />
    <glyph glyph-name="uni0411" unicode="&#x411;" horiz-adv-x="964" 
d="M92 744h768v-164h-562v-96h313q164 0 238 -66q65 -58 65 -169v-11q0 -110 -66 -170q-74 -68 -237 -68h-519v744zM595 164q52 0 78.5 20.5t26.5 55.5v7q0 34 -26.5 53.5t-78.5 19.5h-297v-156h297z" />
    <glyph glyph-name="uni0412" unicode="&#x412;" horiz-adv-x="990" 
d="M92 744h543q144 0 213 -57q53 -44 53 -119v-11q0 -64 -47 -106q-39 -34 -90 -41q74 -13 119 -52q55 -50 55 -132v-11q0 -41 -14.5 -79t-45.5 -66q-77 -70 -240 -70h-546v744zM298 589v-133h307q81 0 81 65v2q0 30 -19 48t-62 18h-307zM298 310v-147h323q50 0 74 24
q19 19 19 51v4q0 32 -19 48q-23 20 -74 20h-323z" />
    <glyph glyph-name="uni0413" unicode="&#x413;" horiz-adv-x="737" 
d="M92 0v744h620v-164h-414v-580h-206z" />
    <glyph glyph-name="uni0414" unicode="&#x414;" horiz-adv-x="1028" 
d="M90 164q43 81 61 195q22 141 22 385h710v-580h120v-289h-196v125h-596v-125h-196v289h75zM677 164v416h-308q0 -141 -20 -248.5t-50 -167.5h378z" />
    <glyph glyph-name="uni0415" unicode="&#x415;" horiz-adv-x="852" 
d="M92 744h681v-162h-478v-121h463v-168h-463v-129h484v-164h-687v744z" />
    <glyph glyph-name="uni0416" unicode="&#x416;" horiz-adv-x="1331" 
d="M559 0v328l-308 -328h-256l370 394l-365 350h261l298 -285v285h206v-285l298 285h256l-355 -341l372 -403h-263l-308 328v-328h-206z" />
    <glyph glyph-name="uni0417" unicode="&#x417;" horiz-adv-x="951" 
d="M904 214q0 -117 -104 -172t-304 -55h-24q-179 0 -287 57q-129 66 -129 206v12h220q0 -67 57.5 -95.5t173.5 -28.5q183 0 183 93q0 42 -32 61t-104 19h-215v147h204q53 0 85 12q39 14 39 53q0 47 -43 65t-142 18q-91 0 -139 -20q-60 -26 -61 -84h-220v15q0 64 32.5 110
t90.5 75q105 51 277 51h32q189 0 288 -47.5t99 -140.5v-7q0 -67 -41 -108q-36 -36 -102 -54q68 -14 113 -53q53 -46 53 -119v-10z" />
    <glyph glyph-name="uni0418" unicode="&#x418;" horiz-adv-x="1031" 
d="M733 0v500l-435 -500h-206v744h206v-500l435 500h206v-744h-206z" />
    <glyph glyph-name="uni0419" unicode="&#x419;" horiz-adv-x="1031" 
d="M733 0v500l-435 -500h-206v744h206v-500l435 500h206v-744h-206zM339 861q-19 23 -27.5 49t-8.5 50v3h146q2 -19 13 -32q14 -21 47 -21q31 0 45 21q10 13 12 32h145v-3q0 -22 -9.5 -48.5t-29.5 -50.5q-24 -28 -61 -44.5t-88 -16.5h-30q-106 0 -154 61z" />
    <glyph glyph-name="uni041A" unicode="&#x41a;" horiz-adv-x="923" 
d="M656 0l-358 350v-350h-206v744h206v-306l348 306h262l-392 -341l409 -403h-269z" />
    <glyph glyph-name="uni041B" unicode="&#x41b;" horiz-adv-x="978" 
d="M680 580h-320q0 -331 -36 -439q-21 -63 -61 -97q-52 -44 -154 -44h-74v175h7q75 0 98 59q11 26 16 70q6 61 7 148q2 140 2 292h721v-744h-206v580z" />
    <glyph glyph-name="uni041C" unicode="&#x41c;" horiz-adv-x="1196" 
d="M92 0v744h274l237 -504l244 504h257v-744h-201v487l-226 -487h-161l-226 487v-487h-198z" />
    <glyph glyph-name="uni041D" unicode="&#x41d;" horiz-adv-x="1011" 
d="M713 0v299h-415v-299h-206v744h206v-276h415v276h206v-744h-206z" />
    <glyph glyph-name="uni041E" unicode="&#x41e;" horiz-adv-x="1056" 
d="M550 756q124 0 212 -32.5t142 -89.5q48 -51 70.5 -115t22.5 -130v-30q0 -65 -22.5 -129.5t-70.5 -115.5q-55 -59 -143 -92.5t-211 -33.5h-44q-161 0 -270 61q-95 53 -138 143q-39 77 -39 167v30q0 90 39 167q44 90 138 141q108 59 270 59h44zM783 381q0 84 -49 137
q-63 68 -206 68q-140 0 -205 -68q-50 -53 -50 -137v-14q0 -37 12 -73t39 -64q66 -71 204 -71q142 0 206 71q49 53 49 137v14z" />
    <glyph glyph-name="uni041F" unicode="&#x41f;" horiz-adv-x="955" 
d="M92 0v744h771v-744h-206v580h-359v-580h-206z" />
    <glyph glyph-name="uni0420" unicode="&#x420;" horiz-adv-x="956" 
d="M298 238v-238h-206v744h504q165 0 242 -69q66 -61 66 -178v-11q0 -116 -67 -177q-77 -71 -241 -71h-298zM298 404h283q109 0 109 85v4q0 40 -27 62.5t-82 22.5h-283v-174z" />
    <glyph glyph-name="uni0421" unicode="&#x421;" horiz-adv-x="1007" 
d="M489 -11q-158 0 -262 63q-90 53 -132 144q-36 76 -36 163v30q0 89 36 164q44 91 132 142q105 60 262 60h46q216 0 325 -94q47 -40 69 -92t22 -108v-2h-212q-2 9 -9 29q-9 23 -34 44.5t-66 36.5q-42 16 -118 16q-127 0 -188 -63q-26 -27 -38.5 -63.5t-12.5 -75.5v-14
q0 -37 12.5 -73.5t39.5 -65.5q63 -70 188 -70q126 0 187 57q20 20 29 40t10 34h212v-3q0 -54 -21.5 -106.5t-67.5 -93.5q-52 -46 -133.5 -72.5t-193.5 -26.5h-46z" />
    <glyph glyph-name="uni0422" unicode="&#x422;" horiz-adv-x="873" 
d="M334 0v574h-288v170h781v-170h-288v-574h-205z" />
    <glyph glyph-name="uni0423" unicode="&#x423;" horiz-adv-x="922" 
d="M593 165q-26 -44 -50.5 -74t-53.5 -49q-61 -42 -170 -42h-128v174h129q18 0 18 13v1q0 8 -2.5 14.5t-11.5 19.5l-326 522h239l241 -400l219 400h227z" />
    <glyph glyph-name="uni0424" unicode="&#x424;" horiz-adv-x="1250" 
d="M522 754h206v-77h137q159 0 249 -66q101 -74 101 -224v-8q0 -151 -101 -230q-47 -36 -111.5 -54.5t-139.5 -18.5h-135v-86h-206v86h-135q-75 0 -139 18.5t-111 54.5q-102 78 -102 230v8q0 150 101 224q90 66 249 66h137v77zM428 514q-179 0 -179 -127v-8q0 -74 45 -107
t134 -33h94v275h-94zM728 239h94q89 0 134 33t45 107v8q0 127 -179 127h-94v-275z" />
    <glyph glyph-name="uni0425" unicode="&#x425;" horiz-adv-x="940" 
d="M681 0l-213 242l-216 -242h-242l328 378l-323 366h261l202 -231l201 231h237l-313 -364l327 -380h-249z" />
    <glyph glyph-name="uni0426" unicode="&#x426;" horiz-adv-x="1008" 
d="M787 -125v125h-695v744h206v-580h359v580h206v-580h120v-289h-196z" />
    <glyph glyph-name="uni0427" unicode="&#x427;" horiz-adv-x="936" 
d="M638 276q-104 -13 -183 -13q-99 0 -170 11t-120 39q-54 31 -82 86t-28 142v203h206v-169q0 -45 12 -74t39 -45q26 -16 67.5 -23t103.5 -7q33 0 89 4q48 3 66 7v307h206v-744h-206v276z" />
    <glyph glyph-name="uni0428" unicode="&#x428;" horiz-adv-x="1290" 
d="M92 0v744h206v-580h244v580h206v-580h244v580h206v-744h-1106z" />
    <glyph glyph-name="uni0429" unicode="&#x429;" horiz-adv-x="1343" 
d="M92 0v744h206v-580h244v580h206v-580h244v580h206v-580h120v-289h-196v125h-1030z" />
    <glyph glyph-name="uni042A" unicode="&#x42a;" horiz-adv-x="1083" 
d="M442 504h303q163 0 238 -69q65 -61 65 -176v-11q0 -115 -66 -177q-76 -71 -237 -71h-509v580h-216v164h422v-240zM729 164q52 0 78.5 23t26.5 63v7q0 39 -26.5 61t-78.5 22h-287v-176h287z" />
    <glyph glyph-name="uni042B" unicode="&#x42b;" horiz-adv-x="1329" 
d="M298 504h303q163 0 238 -69q65 -61 65 -176v-11q0 -115 -66 -177q-76 -71 -237 -71h-509v744h206v-240zM585 164q52 0 78.5 23t26.5 63v7q0 39 -26.5 61t-78.5 22h-287v-176h287zM1237 744v-744h-206v744h206z" />
    <glyph glyph-name="uni042C" unicode="&#x42c;" horiz-adv-x="939" 
d="M298 504h303q163 0 238 -69q65 -61 65 -176v-11q0 -115 -66 -177q-76 -71 -237 -71h-509v744h206v-240zM585 164q52 0 78.5 23t26.5 63v7q0 39 -26.5 61t-78.5 22h-287v-176h287z" />
    <glyph glyph-name="uni042D" unicode="&#x42d;" horiz-adv-x="1007" 
d="M948 359q0 -63 -21 -127t-66 -115q-53 -59 -138 -93.5t-205 -34.5h-46q-217 0 -326 99q-46 41 -68 93t-22 107v3h212q1 -14 10 -35.5t30 -41.5q59 -59 186 -59q99 0 161 44q53 38 73 99h-339v158h339q-20 60 -73 95q-60 39 -160 39q-125 0 -186 -57q-24 -23 -32 -44
l-9 -30h-212v2q0 56 22 108t69 92q109 94 325 94h46q120 0 205.5 -33.5t137.5 -91.5q45 -51 66 -114.5t21 -126.5v-30z" />
    <glyph glyph-name="uni042E" unicode="&#x42e;" horiz-adv-x="1386" 
d="M1327 359q0 -66 -22 -130t-69 -115q-54 -59 -140 -92.5t-206 -33.5h-44q-205 0 -320 100q-93 81 -112 211h-116v-299h-206v744h206v-276h119q26 125 118 198q113 90 311 90h44q121 0 206.5 -32.5t139.5 -89.5q47 -51 69 -115t22 -130v-30zM1113 381q0 85 -47 137
q-61 68 -198 68q-136 0 -197 -68q-48 -52 -48 -137v-14q0 -84 49 -137q62 -71 196 -71q136 0 198 71q47 52 47 137v14z" />
    <glyph glyph-name="uni042F" unicode="&#x42f;" horiz-adv-x="982" 
d="M527 253l-242 -253h-250l265 276q-110 15 -168 70t-58 149v10q0 106 79 170q83 69 234 69h503v-744h-206v253h-157zM684 580h-290q-104 0 -104 -79v-3q0 -42 30 -61q28 -19 74 -19h290v162z" />
    <glyph glyph-name="uni0430" unicode="&#x430;" horiz-adv-x="783" 
d="M435 22q-59 -33 -147 -33h-16q-110 0 -167 54q-26 23 -39 55t-13 67v4q0 76 54 116q61 44 195 55l152 13q23 2 32.5 10.5t9.5 25.5q0 26 -17 37q-27 17 -99 17q-66 0 -94 -22q-18 -16 -18 -39h-200v2q0 68 45 113q73 71 250 71h31q179 0 249 -66q26 -25 34.5 -55t8.5 -66
v-183q0 -28 9 -38.5t37 -10.5h21v-149h-158q-40 0 -65 25q-22 22 -28 52q-25 -32 -67 -55zM462 153q17 16 25.5 35.5t8.5 36.5v43q-25 -10 -122 -26q-73 -12 -97 -25q-27 -13 -27 -43v-2q0 -28 22.5 -44.5t70.5 -16.5q77 0 119 42z" />
    <glyph glyph-name="uni0431" unicode="&#x431;" horiz-adv-x="827" 
d="M774 258q0 -146 -102 -214q-90 -59 -245 -59h-20q-163 0 -250 71q-104 85 -104 269v59q0 193 99 278q48 40 120.5 58.5t173.5 18.5h45q28 0 37 1q14 2 20 4t8 5t3 8h191q0 -45 -9 -76t-30 -51q-40 -39 -141 -39h-124q-107 0 -154 -35t-48 -111q86 89 252 89h6
q112 0 186 -58q40 -32 63 -83.5t23 -121.5v-13zM420 131q67 0 110 34q43 35 43 101q0 64 -43 99q-41 32 -109 32h-12q-74 0 -114.5 -32.5t-40.5 -99.5t41 -100.5t114 -33.5h11z" />
    <glyph glyph-name="uni0432" unicode="&#x432;" horiz-adv-x="799" 
d="M81 0v555h438q97 0 152 -34t55 -99v-5q0 -51 -29.5 -82t-81.5 -39q54 -7 90 -41q39 -37 39 -95v-4q0 -156 -205 -156h-458zM455 334q71 0 71 53v5q0 51 -71 51h-179v-109h179zM463 112q81 0 81 56v8q0 57 -81 57h-187v-121h187z" />
    <glyph glyph-name="uni0433" unicode="&#x433;" horiz-adv-x="590" 
d="M81 0v555h484v-148h-289v-407h-195z" />
    <glyph glyph-name="uni0434" unicode="&#x434;" horiz-adv-x="873" 
d="M35 148h67q25 49 37 170q5 49 7.5 114.5t3.5 83.5l1 39h587v-407h100v-266h-185v118h-433v-118h-185v266zM543 148v259h-217q-2 -67 -11 -127q-13 -83 -29 -132h257z" />
    <glyph glyph-name="uni0435" unicode="&#x435;" horiz-adv-x="811" 
d="M756 173q0 -34 -20 -68q-28 -49 -92 -80q-79 -38 -211 -38h-37q-186 0 -273 92q-69 72 -69 191v14q0 114 64 189q82 94 261 94h44q194 0 274 -98q61 -76 61 -215v-18h-505q7 -53 43 -82q42 -34 125 -34q71 0 107 23q15 10 19 18l6 12h203zM296 412q-33 -23 -41 -71h294
q0 39 -26 65q-34 34 -119 34q-70 0 -108 -28z" />
    <glyph glyph-name="uni0436" unicode="&#x436;" horiz-adv-x="1062" 
d="M429 0v245l-206 -245h-223l251 297l-240 258h230l188 -211v211h195v-211l188 211h225l-232 -249l257 -306h-232l-206 245v-245h-195z" />
    <glyph glyph-name="uni0437" unicode="&#x437;" horiz-adv-x="759" 
d="M704 158q0 -173 -306 -173h-18q-165 0 -249 57q-78 53 -78 143v8h209q1 -44 40 -66q34 -19 88 -19q55 0 84 16.5t29 49.5v3q0 29 -21.5 40t-66.5 11h-132v119h132q33 0 51.5 12.5t18.5 36.5v3q0 50 -100 50q-114 0 -118 -57h-209v3q0 85 92 132q85 43 228 43h16
q292 0 292 -149v-4q0 -57 -37 -91q-29 -26 -73 -36q53 -9 85 -34q43 -33 43 -92v-6z" />
    <glyph glyph-name="uni0438" unicode="&#x438;" horiz-adv-x="825" 
d="M549 336l-268 -336h-200v555h195v-336l268 336h200v-555h-195v336z" />
    <glyph glyph-name="uni0439" unicode="&#x439;" horiz-adv-x="825" 
d="M549 336l-268 -336h-200v555h195v-336l268 336h200v-555h-195v336zM242 673q-34 43 -34 99v3h147q0 -17 10 -31q13 -22 46 -22q30 0 45 22q9 14 9 31h145v-3q0 -23 -9 -49t-29 -50q-50 -61 -147 -61h-30q-105 0 -153 61z" />
    <glyph glyph-name="uni043A" unicode="&#x43a;" horiz-adv-x="726" 
d="M494 0l-216 257v-257h-195v555h195v-222l198 222h225l-232 -249l257 -306h-232z" />
    <glyph glyph-name="uni043B" unicode="&#x43b;" horiz-adv-x="812" 
d="M536 407h-220q0 -117 -5 -181.5t-19 -101.5q-11 -29 -21.5 -48t-29.5 -35q-48 -41 -145 -41h-61v145h12q29 0 46.5 13.5t25.5 49.5q8 42 9 93q2 98 2 254h601v-555h-195v407z" />
    <glyph glyph-name="uni043C" unicode="&#x43c;" horiz-adv-x="1025" 
d="M261 374v-374h-180v555h275l165 -354l165 354h265v-555h-195v374l-173 -374h-149z" />
    <glyph glyph-name="uni043D" unicode="&#x43d;" horiz-adv-x="824" 
d="M276 0h-195v555h195v-202h272v202h195v-555h-195v205h-272v-205z" />
    <glyph glyph-name="uni043E" unicode="&#x43e;" horiz-adv-x="827" 
d="M398 -15q-105 0 -175 28t-109 76q-33 40 -47 86.5t-14 92.5v14q0 61 23 119q29 73 100 117q86 52 221 52h33q140 0 226 -52q69 -43 98 -117q20 -54 20 -118v-16q0 -64 -20 -117q-29 -72 -98 -114q-86 -51 -227 -51h-31zM419 131q83 0 123 52q31 40 31 97q0 58 -31 97
q-40 50 -123 50h-11q-85 0 -125 -50q-29 -37 -29 -97q0 -59 29 -97q40 -52 125 -52h11z" />
    <glyph glyph-name="uni043F" unicode="&#x43f;" horiz-adv-x="804" 
d="M81 0v555h642v-555h-195v407h-252v-407h-195z" />
    <glyph glyph-name="uni0440" unicode="&#x440;" horiz-adv-x="848" 
d="M83 555h193v-71q28 30 73 51q67 31 150 31h13q146 0 220 -89q31 -38 46 -87t15 -101v-17q0 -48 -15.5 -97.5t-46.5 -89.5q-35 -45 -90 -70.5t-130 -25.5h-14q-80 0 -148 32q-40 19 -71 50v-262h-195v746zM591 280q0 56 -29 93q-38 48 -121 48h-10q-80 0 -121 -46
q-33 -38 -33 -95v-3q0 -56 33 -93q41 -48 121 -48h10q83 0 121 49q29 37 29 92v3z" />
    <glyph glyph-name="uni0441" unicode="&#x441;" horiz-adv-x="801" 
d="M736 141.5q-13 -38.5 -45 -71.5q-81 -85 -259 -85h-49q-126 0 -208 51q-65 40 -97 114q-24 56 -24 120v14q0 63 23 121q28 70 96 114q79 51 209 51h46q178 0 261 -83q32 -32 46 -70t14 -73v-1h-204q-3 26 -26 49q-38 36 -111 36h-10q-78 0 -114 -48q-28 -37 -28 -98v-1
q0 -62 31 -101q38 -50 115 -50h10q73 0 110 39q15 17 19 30q4 12 4 19h204q0 -38 -13 -76.5z" />
    <glyph glyph-name="uni0442" unicode="&#x442;" horiz-adv-x="675" 
d="M240 0v407h-215v148h625v-148h-215v-407h-195z" />
    <glyph glyph-name="uni0443" unicode="&#x443;" horiz-adv-x="753" 
d="M123 -52h122q29 0 29 23v1q0 9 -3 20l-15 34l-238 529h214l154 -398l153 398h196l-254 -611q-30 -71 -71 -103t-108 -32h-179v139z" />
    <glyph glyph-name="uni0444" unicode="&#x444;" horiz-adv-x="1049" 
d="M622 -15v-173h-195v173h-29q-142 0 -226 51q-71 42 -98 114q-21 52 -21 117v16q0 65 21 118q27 73 97 117q86 52 226 52h30v174h195v-174h30q140 0 226 -52q69 -43 98 -117q20 -54 20 -118v-16q0 -64 -20 -117q-29 -72 -98 -114q-86 -51 -227 -51h-29zM427 126v306h-19
q-84 0 -123 -48q-31 -39 -31 -104q0 -63 31 -103q39 -51 123 -51h19zM622 432v-306h19q84 0 123 51q31 40 31 103q0 64 -31 103q-39 49 -123 49h-19z" />
    <glyph glyph-name="uni0445" unicode="&#x445;" horiz-adv-x="752" 
d="M525 0l-149 159l-145 -159h-221l249 278l-257 277h239l142 -155l137 155h215l-239 -273l254 -282h-225z" />
    <glyph glyph-name="uni0446" unicode="&#x446;" horiz-adv-x="858" 
d="M823 148v-266h-185v118h-557v555h195v-407h252v407h195v-407h100z" />
    <glyph glyph-name="uni0447" unicode="&#x447;" horiz-adv-x="769" 
d="M688 555v-555h-195v191q-86 -10 -145 -10q-84 0 -141 13t-93 40t-52.5 72.5t-16.5 112.5v136h195v-100q0 -39 7.5 -63t23.5 -37q16 -12 41 -17t66 -5q61 0 115 7v215h195z" />
    <glyph glyph-name="uni0448" unicode="&#x448;" horiz-adv-x="1091" 
d="M81 0v555h195v-407h172v407h195v-407h172v407h195v-555h-929z" />
    <glyph glyph-name="uni0449" unicode="&#x449;" horiz-adv-x="1145" 
d="M81 0v555h195v-407h172v407h195v-407h172v407h195v-407h100v-266h-185v118h-844z" />
    <glyph glyph-name="uni044A" unicode="&#x44a;" horiz-adv-x="826" 
d="M25 555h350v-159h152q136 0 204 -55q60 -49 60 -135v-12q0 -91 -60 -140q-67 -54 -204 -54h-347v407h-155v148zM503 132q37 0 59 13q29 17 29 53v3q0 35 -29 50q-25 13 -59 13h-128v-132h128z" />
    <glyph glyph-name="uni044B" unicode="&#x44b;" horiz-adv-x="1088" 
d="M81 555h195v-159h152q136 0 204 -55q60 -49 60 -135v-12q0 -91 -60 -140q-67 -54 -204 -54h-347v555zM404 132q37 0 59 13q29 17 29 53v3q0 35 -29 50q-25 13 -59 13h-128v-132h128zM1005 555v-555h-195v555h195z" />
    <glyph glyph-name="uni044C" unicode="&#x44c;" horiz-adv-x="727" 
d="M81 555h195v-159h152q136 0 204 -55q60 -49 60 -135v-12q0 -91 -60 -140q-67 -54 -204 -54h-347v555zM404 132q37 0 59 13q29 17 29 53v3q0 35 -29 50q-25 13 -59 13h-128v-132h128z" />
    <glyph glyph-name="uni044D" unicode="&#x44d;" horiz-adv-x="800" 
d="M747 270q0 -66 -23 -120q-31 -73 -97 -114q-83 -51 -209 -51h-49q-177 0 -258 85q-32 33 -45.5 72t-13.5 76h204q0 -9 5.5 -23.5t17.5 -28.5q37 -41 110 -41h10q61 0 99 30q32 26 45 71h-223v120h220q-29 87 -137 87h-10q-73 0 -111 -38q-22 -24 -26 -52h-204v1
q0 35 14 73t46 70q83 83 261 83h46q130 0 209 -51q68 -44 96 -114q23 -58 23 -121v-14z" />
    <glyph glyph-name="uni044E" unicode="&#x44e;" horiz-adv-x="1107" 
d="M1054 267q0 -64 -20 -117q-27 -71 -95 -114q-81 -51 -220 -51h-31q-159 0 -246 73q-66 56 -83 147h-83v-205h-195v555h195v-202h85q21 93 85 146q86 71 241 71h33q136 0 220 -52q66 -42 94 -117q20 -54 20 -118v-16zM709 131q81 0 117 52q27 41 27 97q0 58 -27 97
q-36 50 -117 50h-11q-84 0 -118 -50q-26 -36 -26 -97q0 -60 26 -97q35 -52 118 -52h11z" />
    <glyph glyph-name="uni044F" unicode="&#x44f;" horiz-adv-x="824" 
d="M417 186l-162 -186h-220l181 207q-73 14 -112 54.5t-39 103.5v12q0 77 59 127q61 51 162 51h457v-555h-195v186h-131zM339 427q-37 0 -58 -12t-21 -42v-4q0 -56 80 -56h208v114h-209z" />
    <glyph glyph-name="uni0451" unicode="&#x451;" horiz-adv-x="811" 
d="M756 173q0 -34 -20 -68q-28 -49 -92 -80q-79 -38 -211 -38h-37q-186 0 -273 92q-69 72 -69 191v14q0 114 64 189q82 94 261 94h44q194 0 274 -98q61 -76 61 -215v-18h-505q7 -53 43 -82q42 -34 125 -34q71 0 107 23q15 10 19 18l6 12h203zM296 412q-33 -23 -41 -71h294
q0 39 -26 65q-34 34 -119 34q-70 0 -108 -28zM372 757v-140h-191v140h191zM623 757v-140h-191v140h191z" />
    <glyph glyph-name="uni0453" unicode="&#x453;" horiz-adv-x="590" 
d="M81 0v555h484v-148h-289v-407h-195zM213 617l88 149h218l-111 -149h-195z" />
    <glyph glyph-name="uni045E" unicode="&#x45e;" horiz-adv-x="753" 
d="M123 -52h122q29 0 29 23v1q0 9 -3 20l-15 34l-238 529h214l154 -398l153 398h196l-254 -611q-30 -71 -71 -103t-108 -32h-179v139zM214 673q-34 43 -34 99v3h147q0 -17 10 -31q13 -22 46 -22q30 0 45 22q9 14 9 31h145v-3q0 -23 -9 -49t-29 -50q-50 -61 -147 -61h-30
q-105 0 -153 61z" />
    <glyph glyph-name="uni0490" unicode="&#x490;" horiz-adv-x="737" 
d="M92 0v744h424v122h196v-286h-414v-580h-206z" />
    <glyph glyph-name="Wgrave" unicode="&#x1e80;" horiz-adv-x="1340" 
d="M513 0h-239l-256 744h221l164 -535l156 535h240l157 -537l163 537h203l-247 -744h-246l-158 521zM576 805l-106 148h222l91 -148h-207z" />
    <glyph glyph-name="wgrave" unicode="&#x1e81;" horiz-adv-x="1152" 
d="M466 0h-227l-217 555h207l133 -385l115 385h220l124 -385l123 385h185l-196 -555h-229l-122 360zM591 766l88 -149h-195l-111 149h218z" />
    <glyph glyph-name="Wacute" unicode="&#x1e82;" horiz-adv-x="1340" 
d="M513 0h-239l-256 744h221l164 -535l156 535h240l157 -537l163 537h203l-247 -744h-246l-158 521zM782 805h-207l91 148h222z" />
    <glyph glyph-name="wacute" unicode="&#x1e83;" horiz-adv-x="1152" 
d="M466 0h-227l-217 555h207l133 -385l115 385h220l124 -385l123 385h185l-196 -555h-229l-122 360zM487 617l88 149h218l-111 -149h-195z" />
    <glyph glyph-name="Wdieresis" unicode="&#x1e84;" horiz-adv-x="1340" 
d="M513 0h-239l-256 744h221l164 -535l156 535h240l157 -537l163 537h203l-247 -744h-246l-158 521zM648 945v-140h-194v140h194zM904 945v-140h-194v140h194z" />
    <glyph glyph-name="wdieresis" unicode="&#x1e85;" horiz-adv-x="1152" 
d="M466 0h-227l-217 555h207l133 -385l115 385h220l124 -385l123 385h185l-196 -555h-229l-122 360zM555 757v-140h-191v140h191zM806 757v-140h-191v140h191z" />
    <glyph glyph-name="Ygrave" unicode="&#x1ef2;" horiz-adv-x="927" 
d="M367 0v272l-369 472h255l223 -295l223 295h230l-356 -473v-271h-206zM373 805l-106 148h222l91 -148h-207z" />
    <glyph glyph-name="ygrave" unicode="&#x1ef3;" horiz-adv-x="753" 
d="M123 -52h122q29 0 29 23v1q0 9 -3 20l-15 34l-238 529h214l154 -398l153 398h196l-254 -611q-30 -71 -71 -103t-108 -32h-179v139zM397 766l88 -149h-195l-111 149h218z" />
    <glyph glyph-name="endash" unicode="&#x2013;" horiz-adv-x="804" 
d="M74 370h656v-140h-656v140z" />
    <glyph glyph-name="glyph45" 
d="M414 766l88 -149h-195l-111 149h218z" />
    <glyph glyph-name="glyph72" 
d="M320 757v-140h-191v140h191zM571 757v-140h-191v140h191z" />
    <glyph glyph-name="glyph73" 
d="M167 630v118h366v-118h-366z" />
    <glyph glyph-name="glyph74" 
d="M198 617l88 149h218l-111 -149h-195z" />
    <glyph glyph-name="glyph131" 
d="M465 766l137 -150h-195l-59 65l-59 -65h-191l136 150h231z" />
    <glyph glyph-name="glyph132" 
d="M235 617l-137 149h195l59 -64l59 64h191l-136 -149h-231z" />
    <glyph glyph-name="glyph133" 
d="M183 673q-34 43 -34 99v3h147q0 -17 10 -31q13 -22 46 -22q30 0 45 22q9 14 9 31h145v-3q0 -23 -9 -49t-29 -50q-50 -61 -147 -61h-30q-105 0 -153 61z" />
    <glyph glyph-name="glyph134" 
d="M449 757v-140h-199v140h199z" />
    <glyph glyph-name="glyph135" 
d="M218 832q45 38 131 38q87 0 132 -38q37 -33 37 -91t-36 -91q-42 -39 -133 -39q-89 0 -131 39q-37 34 -37 91q0 58 37 91zM299 701q17 -16 50 -16t50.5 16t17.5 40t-17 39t-51 15t-50.5 -14.5t-16.5 -39.5q0 -24 17 -40z" />
    <glyph glyph-name="glyph136" horiz-adv-x="701" 
d="M345 -193q-131 0 -131 76v2q0 39 44 65t133 50h85q-40 -26 -53 -37q-19 -16 -19 -33q0 -25 38 -25h45v-98h-142z" />
    <glyph glyph-name="glyph137" 
d="M537 718q0 -39 -16 -64q-22 -34 -70 -34h-2q-26 0 -49 7.5t-61 27.5l-32 16q-12 5 -18 5q-14 0 -14 -22v-40h-112v79q0 39 17 65q21 33 69 33h2q26 0 49 -7.5t61 -27.5l32 -16q12 -5 18 -5q14 0 14 22v40h112v-79z" />
    <glyph glyph-name="glyph138" 
d="M105 617l62 149h182l-64 -149h-180zM346 617l65 149h183l-70 -149h-178z" />
    <glyph glyph-name="f_i.liga" horiz-adv-x="877" 
d="M477 636h-78q-23 0 -33.5 -10.5t-10.5 -35.5v-35h122v-140h-122v-415h-194v415h-123v140h123v45q0 77 35 115q40 42 138 42h143v-121zM796 757v-140h-199v140h199zM794 555v-555h-195v555h195z" />
    <glyph glyph-name="f_l.liga" horiz-adv-x="877" 
d="M477 636h-78q-23 0 -33.5 -10.5t-10.5 -35.5v-35h122v-140h-122v-415h-194v415h-123v140h123v45q0 77 35 115q40 42 138 42h143v-121zM794 757v-757h-195v757h195z" />
    <glyph glyph-name="glyph221" horiz-adv-x="361" 
d="M280 757v-140h-199v140h199zM278 555v-555h-195v555h195z" />
    <glyph glyph-name="f_f.liga" horiz-adv-x="958" 
d="M161 0v415h-123v140h123v45q0 77 35 115q40 42 138 42h147v-121h-82q-23 0 -33.5 -10.5t-10.5 -35.5v-35h244v45q0 77 35 115q40 42 138 42h147v-121h-82q-23 0 -33.5 -10.5t-10.5 -35.5v-35h126v-140h-126v-415h-194v415h-244v-415h-194z" />
    <glyph glyph-name="f_f_t.liga" horiz-adv-x="1412" 
d="M355 415v-415h-194v415h-123v140h123v45q0 77 35 115q40 42 138 42h147v-121h-82q-23 0 -33.5 -10.5t-10.5 -35.5v-35h244v45q0 77 35 115q40 42 138 42h142v-121h-77q-23 0 -33.5 -10.5t-10.5 -35.5v-35h244v169h194v-169h127v-140h-127v-204q0 -34 12 -48t46 -14h69
v-149h-177q-69 0 -106.5 38t-37.5 112v265h-244v-415h-194v415h-244z" />
    <glyph glyph-name="f_t.liga" horiz-adv-x="974" 
d="M355 415v-415h-194v415h-123v140h123v45q0 77 35 115q40 42 138 42h142v-121h-77q-23 0 -33.5 -10.5t-10.5 -35.5v-35h244v169h194v-169h127v-140h-127v-204q0 -34 12 -48t46 -14h69v-149h-177q-69 0 -106.5 38t-37.5 112v265h-244z" />
    <glyph glyph-name="glyph259" horiz-adv-x="666" 
d="M301 -280q22 44 29 84h-104v134h214v-111q0 -25 -9.5 -55.5t-20.5 -51.5h-109z" />
    <glyph glyph-name="glyph260" horiz-adv-x="565" 
d="M49 175h121q29 0 48 6.5t31 20.5q20 25 20 94v448h206v-495q0 -128 -52.5 -188.5t-173.5 -60.5h-200v175z" />
    <glyph glyph-name="I_J.locl" horiz-adv-x="955" 
d="M298 744v-744h-206v744h206zM439 175h121q29 0 48 6.5t31 20.5q20 25 20 94v448h206v-495q0 -128 -52.5 -188.5t-173.5 -60.5h-200v175z" />
    <glyph glyph-name="glyph262" horiz-adv-x="783" 
d="M424 835q-22 -44 -29 -84h104v-134h-214v111q0 25 9.5 55.5t20.5 51.5h109z" />
    <glyph glyph-name="glyph263" 
d="M300 805l-106 148h222l91 -148h-207z" />
    <glyph glyph-name="glyph264" 
d="M319 945v-140h-194v140h194zM575 945v-140h-194v140h194z" />
    <glyph glyph-name="glyph265" horiz-adv-x="711" 
d="M167 820v118h377v-118h-377z" />
    <glyph glyph-name="glyph266" 
d="M401 805h-207l91 148h222z" />
    <glyph glyph-name="glyph267" 
d="M465 953l140 -150h-193l-63 63l-63 -63h-190l140 150h229z" />
    <glyph glyph-name="glyph268" 
d="M235 805l-140 148h194l63 -64l63 64h191l-140 -148h-231z" />
    <glyph glyph-name="glyph269" horiz-adv-x="711" 
d="M187 861q-19 23 -27.5 49t-8.5 50v3h146q2 -19 13 -32q14 -21 47 -21q31 0 45 21q10 13 12 32h145v-3q0 -22 -9.5 -48.5t-29.5 -50.5q-24 -28 -61 -44.5t-88 -16.5h-30q-106 0 -154 61z" />
    <glyph glyph-name="glyph270" 
d="M449 945v-140h-199v140h199z" />
    <glyph glyph-name="glyph271" horiz-adv-x="711" 
d="M224 1018q45 38 131 38q87 0 132 -38q37 -33 37 -92q0 -57 -36 -90q-43 -40 -133 -40q-88 0 -131 40q-37 34 -37 90q0 59 37 92zM406 966q-17 15 -51 15t-50.5 -15t-16.5 -40q0 -24 17 -40t50 -16t50.5 16t17.5 40q0 25 -17 40z" />
    <glyph glyph-name="glyph272" horiz-adv-x="711" 
d="M269 800h-112v78q0 39 17 65q23 33 70 33h2q25 0 50.5 -8t73.5 -28q23 -11 36 -15q15 -5 21 -5q14 0 14 22v40h112v-78q0 -39 -17 -64q-22 -34 -70 -34h-2q-25 0 -50.5 8t-73.5 28q-23 11 -36 15q-15 5 -21 5q-14 0 -14 -22v-40z" />
    <glyph glyph-name="glyph273" 
d="M102 805l62 148h183l-64 -148h-181zM346 805l67 148h185l-72 -148h-180z" />
    <glyph glyph-name="glyph274" horiz-adv-x="516" 
d="M477 636h-78q-23 0 -33.5 -10.5t-10.5 -35.5v-35h122v-140h-122v-415h-194v415h-123v140h123v45q0 77 35 115q40 42 138 42h143v-121z" />
    <glyph glyph-name="glyph275" horiz-adv-x="954" 
d="M161 0v415h-123v140h123v45q0 77 35 115q40 42 138 42h147v-121h-82q-23 0 -33.5 -10.5t-10.5 -35.5v-35h244v45q0 77 35 115q40 42 138 42h143v-121h-78q-23 0 -33.5 -10.5t-10.5 -35.5v-35h122v-140h-122v-415h-194v415h-244v-415h-194z" />
    <glyph glyph-name="uni0414.locl" horiz-adv-x="1018" 
d="M211 0v-125h-196v289h87l267 580h271l276 -580h87v-289h-196v125h-596zM324 164h357l-178 404z" />
    <glyph glyph-name="uni0416.locl" horiz-adv-x="1331" 
d="M559 0v328l-308 -328h-256l370 394l-365 350h261l298 -285v285h206v-285l298 285h256l-355 -341l372 -403h-263l-308 328v-328h-206z" />
    <glyph glyph-name="uni041A.locl" horiz-adv-x="923" 
d="M298 0h-206v744h206v-306l348 306h262l-392 -341l409 -403h-269l-358 350v-350z" />
    <glyph glyph-name="uni041B.locl" horiz-adv-x="971" 
 />
    <glyph glyph-name="uni0431.locl" horiz-adv-x="827" 
d="M774 248q0 -59 -22 -109q-29 -68 -98 -106q-84 -48 -225 -48h-31q-136 0 -220 48q-69 38 -101 106q-24 49 -24 110v14q0 64 33 114q36 55 112 83q-106 33 -106 131q0 148 222 148h172q28 0 37 1q14 2 20 4t8 5t3 8h191q0 -47 -6.5 -77.5t-23.5 -49.5q-19 -20 -52 -29.5
t-87 -9.5h-194q-39 0 -61 -5q-21 -6 -21 -22q0 -19 23 -25t74 -9l33 -2q201 -12 286 -104q58 -63 58 -160v-16zM419 131q80 0 122 46q32 36 32 84q0 49 -32 84q-42 42 -122 42h-11q-82 0 -122 -42q-32 -33 -32 -84q0 -49 32 -84q41 -46 122 -46h11z" />
    <glyph glyph-name="uni0432.locl" horiz-adv-x="806" 
d="M750 233q0 -122 -91 -187q-42 -30 -102.5 -45.5t-133.5 -15.5h-33q-142 0 -229 62q-104 73 -104 225v177q0 160 96 238q84 70 235 70h37q146 0 227 -51q84 -53 84 -152v-13q0 -64 -37 -104q-32 -37 -78 -45q22 -3 45 -14.5t41 -30.5q43 -45 43 -107v-7zM252 453h183
q56 0 82 24q22 21 22 54v6q0 37 -31.5 58.5t-92.5 21.5h-9q-67 0 -105 -29q-49 -37 -49 -117v-18zM416 131q62 0 98 25t36 73v9q0 39 -31.5 60.5t-102.5 21.5h-164v-65q0 -68 50 -99q39 -25 103 -25h11z" />
    <glyph glyph-name="uni0433.locl" horiz-adv-x="737" 
d="M683 164q0 -63 -46 -107q-74 -70 -251 -70h-26q-176 0 -249 55q-58 43 -58 125v7q0 70 52 110q59 43 201 59l76 8q60 6 79 17q10 6 14 14t4 21q0 20 -23 34q-22 12 -83 12h-3q-59 0 -85 -18q-22 -15 -24 -36h-201v3q0 72 54 112q76 58 247 58h27q158 0 228 -48
q59 -40 59 -120v-6q0 -74 -53 -113q-60 -46 -188 -59l-76 -8q-66 -7 -87 -19q-10 -6 -13.5 -14.5t-3.5 -20.5q0 -23 21 -35q27 -15 86 -15h2q62 0 92 23q21 16 23 36h205v-5z" />
    <glyph glyph-name="uni0434.locl" horiz-adv-x="846" 
d="M405 -206q-187 0 -267 67q-51 43 -51 115v4h207q5 -9 10 -15.5t16 -11.5q28 -16 96 -16h11q75 0 112 34q31 27 31 83v41q-14 -14 -27.5 -25t-35.5 -21q-64 -30 -150 -30h-14q-150 0 -225 89q-32 37 -47 83.5t-15 94.5v17q0 50 16 96.5t48 82.5q35 39 90 61.5t130 22.5h11
q89 0 150 -26q42 -18 68 -42v57h194v-493q0 -123 -69 -189q-81 -79 -255 -79h-34zM408 422q-81 0 -121 -42q-30 -33 -30 -85v-3q0 -50 31 -84q40 -43 120 -43h12q77 0 119 42q16 17 24 39t8 45v4q0 51 -34 86q-41 41 -118 41h-11z" />
    <glyph glyph-name="uni0436.locl" horiz-adv-x="1062" 
d="M429 0v245l-206 -245h-223l251 297l-240 258h230l188 -211v413h195v-413l188 211h225l-232 -249l257 -306h-232l-206 245v-245h-195z" />
    <glyph glyph-name="uni0437.locl" horiz-adv-x="769" 
d="M57 339q0 115 95 176q85 55 231 55h16q134 0 213 -50q40 -25 61.5 -62.5t21.5 -84.5v-12q0 -63 -36 -108q-30 -37 -74 -49q54 -17 86 -48q42 -44 42 -114v-16q0 -113 -84 -174q-80 -58 -222 -58h-18q-156 0 -244 67q-93 70 -93 213v14h209v-14q0 -75 38 -107
q33 -30 96 -30q117 0 117 98v13q0 40 -28.5 61t-92.5 21h-109v138h107q55 0 80 19.5t25 57.5v7q0 36 -28 56.5t-79 20.5q-121 0 -121 -91v-4h-209v5z" />
    <glyph glyph-name="uni0438.locl" horiz-adv-x="822" 
d="M739 0h-193v88q-10 -14 -29 -31t-44 -31q-69 -39 -150 -39h-9q-112 0 -176 67q-28 29 -42.5 66t-14.5 75v360h195v-289q0 -54 30 -87q33 -38 100 -38q65 0 103 41q35 37 35 91v282h195v-555z" />
    <glyph glyph-name="uni043A.locl" horiz-adv-x="726" 
d="M278 0h-195v757h195v-424l198 222h225l-232 -249l257 -306h-232l-216 257v-257z" />
    <glyph glyph-name="uni043B.locl" horiz-adv-x="763" 
 />
    <glyph glyph-name="uni043D.locl" horiz-adv-x="824" 
d="M276 0h-195v555h195v-202h272v202h195v-555h-195v205h-272v-205z" />
    <glyph glyph-name="uni043F.locl" horiz-adv-x="828" 
d="M83 555h193v-88q29 37 74 62q69 39 151 39h10q114 0 179 -67q28 -29 42.5 -66t14.5 -75v-360h-195v289q0 51 -30 87q-34 39 -103 39q-67 0 -105 -41q-18 -18 -27 -42.5t-9 -49.5v-282h-195v555z" />
    <glyph glyph-name="uni0442.locl" horiz-adv-x="1247" 
d="M83 0v555h193v-90q28 39 69 64q65 39 142 39h8q75 0 124 -30t75 -81q34 46 88 76q67 35 144 35h9q120 0 181 -74q50 -61 50 -156v-338h-195v289q0 53 -27 87q-32 39 -95 39q-62 0 -96 -41q-15 -18 -23 -42t-8 -50v-282h-194v289q0 53 -27 87q-33 39 -95 39q-63 0 -96 -41
q-15 -18 -23.5 -42.5t-8.5 -49.5v-282h-195z" />
    <glyph glyph-name="uni0446.locl" horiz-adv-x="874" 
d="M839 148v-266h-185v118h-108v88q-10 -14 -29 -31t-44 -31q-69 -39 -150 -39h-9q-112 0 -176 67q-28 29 -42.5 66t-14.5 75v360h195v-289q0 -54 30 -87q33 -38 100 -38q65 0 103 41q35 37 35 91v282h195v-407h100z" />
    <glyph glyph-name="uni0447.locl" horiz-adv-x="769" 
d="M688 555v-555h-195v191q-86 -10 -145 -10q-84 0 -141 13t-93 40t-52.5 72.5t-16.5 112.5v136h195v-100q0 -39 7.5 -63t23.5 -37q16 -12 41 -17t66 -5q61 0 115 7v215h195z" />
    <glyph glyph-name="uni0448.locl" horiz-adv-x="1247" 
 />
    <glyph glyph-name="uni0449.locl" horiz-adv-x="1299" 
d="M1164 555v-407h100v-266h-185v118h-108v90q-28 -39 -69 -64q-65 -39 -142 -39h-8q-75 0 -124 30t-75 81q-35 -48 -87 -75q-65 -36 -145 -36h-9q-120 0 -181 74q-50 61 -50 156v338h195v-289q0 -53 28 -87q31 -39 94 -39q62 0 96 41q15 18 23 42t8 50v282h194v-289
q0 -53 28 -87q31 -39 94 -39t97 41q15 19 23 43t8 49v282h195z" />
    <glyph glyph-name="uni044A.locl" horiz-adv-x="866" 
d="M25 555h350v-139h172q145 0 219 -58q65 -51 65 -142v-12q0 -100 -69 -155q-78 -64 -245 -64h-12q-169 0 -250 64q-75 58 -75 171v187h-155v148zM375 220q0 -50 39 -71q30 -17 92 -17h6q55 0 84 16q35 18 35 60v3q0 39 -35 58q-29 15 -73 15h-148v-64z" />
    <glyph glyph-name="uni044C.locl" horiz-adv-x="767" 
d="M81 555h195v-139h172q145 0 219 -58q65 -51 65 -142v-12q0 -100 -69 -155q-78 -64 -245 -64h-12q-169 0 -250 64q-75 58 -75 171v335zM276 220q0 -50 39 -71q30 -17 92 -17h6q55 0 84 16q35 18 35 60v3q0 39 -35 58q-29 15 -73 15h-148v-64z" />
    <glyph glyph-name="uni044E.locl" horiz-adv-x="1107" 
d="M1054 267q0 -64 -20 -117q-27 -71 -95 -114q-81 -51 -220 -51h-31q-159 0 -246 73q-66 56 -83 147h-83v-205h-195v757h195v-404h85q21 93 85 146q86 71 241 71h33q136 0 220 -52q66 -42 94 -117q20 -54 20 -118v-16zM709 131q81 0 117 52q27 41 27 97q0 58 -27 97
q-36 50 -117 50h-11q-84 0 -118 -50q-26 -36 -26 -97q0 -60 26 -97q35 -52 118 -52h11z" />
    <glyph glyph-name="uni0439.locl" horiz-adv-x="822" 
d="M739 0h-193v88q-10 -14 -29 -31t-44 -31q-69 -39 -150 -39h-9q-112 0 -176 67q-28 29 -42.5 66t-14.5 75v360h195v-289q0 -54 30 -87q33 -38 100 -38q65 0 103 41q35 37 35 91v282h195v-555zM242 673q-34 43 -34 99v3h147q0 -17 10 -31q13 -22 46 -22q30 0 45 22
q9 14 9 31h145v-3q0 -23 -9 -49t-29 -50q-50 -61 -147 -61h-30q-105 0 -153 61z" />
    </font>
</defs>
</svg>
